<svg display="block" role="presentation" viewBox="0 0 72 78" xmlns="http://www.w3.org/2000/svg"><path d="M 35.443 73.291 C 35.437 73.493 35.431 73.641 35.423 73.735 C 35.416 73.829 35.403 73.892 35.384 73.923 C 35.365 73.949 35.333 73.962 35.288 73.961 L 34.425 73.936 L 34.391 75.081 L 35.207 75.104 C 35.198 75.387 35.186 75.573 35.17 75.662 C 35.159 75.747 35.122 75.789 35.058 75.788 L 34.371 75.767 L 34.325 77.303 L 35.275 77.33 C 35.269 77.541 35.262 77.694 35.255 77.788 C 35.248 77.883 35.235 77.942 35.216 77.969 C 35.198 77.991 35.166 78.001 35.121 78 L 33.55 77.954 L 33.687 73.375 L 33.71 73.308 C 33.725 73.263 33.763 73.242 33.826 73.244 L 35.444 73.291 Z M 37.381 73.241 C 37.664 73.225 37.904 73.252 38.101 73.321 C 38.303 73.386 38.459 73.516 38.569 73.713 C 38.684 73.905 38.751 74.185 38.772 74.551 C 38.79 74.856 38.766 75.109 38.701 75.311 C 38.64 75.508 38.55 75.666 38.431 75.785 C 38.41 75.805 38.39 75.823 38.369 75.841 C 38.422 75.903 38.48 75.981 38.541 76.075 C 38.654 76.236 38.758 76.45 38.854 76.719 C 38.955 76.987 39.024 77.321 39.06 77.719 C 39.063 77.782 39.046 77.828 39.007 77.857 C 38.972 77.881 38.863 77.898 38.679 77.909 C 38.621 77.913 38.554 77.914 38.477 77.914 C 38.4 77.913 38.319 77.913 38.234 77.914 C 38.202 77.52 38.15 77.197 38.078 76.945 C 38.004 76.688 37.926 76.49 37.842 76.351 C 37.787 76.253 37.737 76.176 37.691 76.119 C 37.654 76.124 37.617 76.128 37.579 76.13 L 37.532 76.132 L 37.627 77.813 C 37.629 77.858 37.62 77.89 37.598 77.91 C 37.577 77.928 37.513 77.943 37.405 77.954 C 37.302 77.964 37.128 77.977 36.881 77.99 L 36.622 73.418 C 36.622 73.418 36.626 73.394 36.632 73.35 C 36.643 73.305 36.682 73.28 36.749 73.276 L 37.172 73.253 L 37.382 73.241 Z M 30.156 72.836 L 30.172 72.837 L 30.766 72.92 L 31.215 74.771 C 31.243 74.893 31.269 75.03 31.293 75.183 C 31.318 75.331 31.337 75.484 31.352 75.64 C 31.376 75.824 31.394 76.008 31.408 76.193 C 31.41 76.137 31.411 76.083 31.413 76.029 C 31.419 75.93 31.422 75.836 31.426 75.746 C 31.434 75.656 31.439 75.568 31.442 75.483 C 31.45 75.398 31.457 75.315 31.463 75.234 C 31.475 75.149 31.484 75.067 31.491 74.986 L 31.525 74.746 L 31.742 73.192 C 31.748 73.147 31.764 73.118 31.789 73.103 C 31.813 73.088 31.878 73.086 31.981 73.096 C 32.088 73.106 32.264 73.129 32.509 73.163 L 31.874 77.699 C 31.862 77.782 31.817 77.821 31.738 77.815 L 31.722 77.813 L 31.141 77.732 L 30.683 75.846 C 30.658 75.733 30.633 75.606 30.608 75.461 C 30.587 75.318 30.568 75.168 30.548 75.011 C 30.534 74.855 30.522 74.703 30.51 74.557 C 30.504 74.485 30.498 74.416 30.493 74.352 C 30.492 74.387 30.491 74.422 30.489 74.458 C 30.485 74.557 30.48 74.658 30.474 74.762 C 30.469 74.861 30.462 74.96 30.453 75.058 C 30.448 75.152 30.442 75.247 30.433 75.341 C 30.425 75.435 30.414 75.527 30.402 75.615 C 30.395 75.7 30.386 75.781 30.375 75.856 L 30.151 77.457 C 30.145 77.502 30.13 77.532 30.105 77.546 C 30.08 77.561 30.016 77.563 29.913 77.553 C 29.81 77.544 29.634 77.521 29.385 77.486 L 30.019 72.951 C 30.031 72.867 30.076 72.828 30.155 72.834 Z M 41.387 72.778 C 41.628 72.743 41.813 72.758 41.945 72.821 C 42.08 72.879 42.155 72.959 42.169 73.061 C 42.181 73.145 42.182 73.232 42.172 73.319 C 42.166 73.406 42.157 73.484 42.144 73.554 C 42.09 73.522 42.016 73.5 41.924 73.49 C 41.831 73.476 41.74 73.475 41.651 73.488 C 41.482 73.512 41.349 73.565 41.251 73.647 C 41.154 73.724 41.083 73.836 41.04 73.983 C 41.002 74.129 40.988 74.317 40.998 74.547 C 41.007 74.772 41.034 75.045 41.08 75.366 C 41.128 75.703 41.173 75.976 41.216 76.183 C 41.264 76.389 41.313 76.545 41.364 76.651 C 41.415 76.753 41.474 76.82 41.543 76.851 C 41.61 76.878 41.688 76.884 41.777 76.872 C 41.822 76.866 41.857 76.858 41.883 76.85 C 41.913 76.837 41.934 76.825 41.946 76.814 C 41.962 76.802 41.974 76.792 41.981 76.782 L 41.769 75.288 L 41.463 75.331 L 41.395 74.851 C 41.382 74.762 41.429 74.71 41.536 74.695 L 42.384 74.575 L 42.759 77.271 C 42.694 77.325 42.615 77.374 42.522 77.42 C 42.433 77.464 42.334 77.5 42.224 77.529 C 42.115 77.563 41.996 77.589 41.867 77.607 C 41.613 77.643 41.4 77.64 41.225 77.596 C 41.051 77.548 40.905 77.449 40.788 77.297 C 40.672 77.146 40.572 76.927 40.49 76.639 C 40.413 76.351 40.343 75.984 40.28 75.539 C 40.204 75.002 40.175 74.561 40.195 74.218 C 40.213 73.871 40.272 73.599 40.372 73.404 C 40.471 73.204 40.607 73.058 40.78 72.965 C 40.953 72.873 41.155 72.81 41.387 72.778 Z M 27.28 72.216 C 27.304 72.176 27.347 72.163 27.408 72.179 L 28.98 72.571 C 28.929 72.767 28.89 72.91 28.862 73 C 28.833 73.091 28.807 73.149 28.782 73.175 C 28.758 73.197 28.724 73.202 28.68 73.191 L 27.842 72.982 L 27.556 74.092 L 28.348 74.29 C 28.277 74.565 28.225 74.744 28.189 74.827 C 28.159 74.908 28.113 74.941 28.052 74.926 L 27.384 74.759 L 27 76.248 L 27.923 76.478 C 27.87 76.682 27.83 76.83 27.802 76.92 C 27.774 77.01 27.748 77.067 27.724 77.089 C 27.701 77.106 27.667 77.109 27.624 77.098 L 26.098 76.717 L 27.244 72.277 L 27.28 72.217 Z M 45.146 76.779 C 45.155 76.823 45.151 76.856 45.132 76.878 C 45.114 76.901 45.052 76.926 44.948 76.953 C 44.848 76.98 44.672 77.02 44.421 77.075 L 43.499 72.775 C 43.475 72.665 43.469 72.586 43.482 72.537 C 43.495 72.488 43.553 72.447 43.657 72.416 C 43.76 72.384 43.936 72.341 44.182 72.288 Z M 49.408 75.619 C 49.431 75.659 49.425 75.697 49.393 75.73 C 49.361 75.764 49.272 75.803 49.126 75.849 C 49.079 75.864 49.02 75.879 48.95 75.896 C 48.881 75.918 48.799 75.942 48.703 75.967 L 48.168 75.01 L 47.31 75.279 L 47.408 76.238 C 47.413 76.283 47.402 76.324 47.376 76.361 C 47.353 76.392 47.268 76.43 47.122 76.476 C 47.075 76.491 47.008 76.509 46.921 76.532 C 46.834 76.554 46.746 76.575 46.657 76.593 L 46.352 71.889 C 46.341 71.793 46.423 71.718 46.599 71.663 C 46.66 71.644 46.72 71.627 46.782 71.613 C 46.848 71.597 46.904 71.587 46.949 71.582 Z M 37.587 73.884 L 37.405 73.894 L 37.475 75.128 L 37.491 75.42 L 37.493 75.441 L 37.627 75.433 C 37.698 75.43 37.758 75.404 37.804 75.356 C 37.851 75.309 37.884 75.223 37.905 75.101 C 37.929 74.973 37.935 74.794 37.922 74.56 C 37.913 74.399 37.894 74.267 37.866 74.166 C 37.842 74.064 37.806 73.991 37.759 73.95 C 37.716 73.903 37.658 73.881 37.587 73.886 Z M 46.963 72.68 C 46.993 72.817 47.019 72.962 47.044 73.114 C 47.073 73.265 47.099 73.413 47.12 73.557 C 47.145 73.695 47.163 73.826 47.174 73.95 L 47.239 74.587 L 47.828 74.403 L 47.516 73.844 C 47.458 73.735 47.397 73.617 47.333 73.491 C 47.268 73.361 47.204 73.225 47.14 73.085 C 47.077 72.945 47.018 72.81 46.963 72.681 Z M 55.381 72.751 C 55.402 72.791 55.408 72.824 55.396 72.851 C 55.385 72.877 55.334 72.918 55.241 72.974 C 55.152 73.027 54.994 73.116 54.765 73.241 L 54.181 72.101 C 54.097 71.937 54.02 71.781 53.947 71.631 C 53.877 71.474 53.813 71.328 53.753 71.192 C 53.696 71.049 53.644 70.921 53.598 70.808 C 53.549 70.691 53.511 70.593 53.481 70.511 C 53.45 70.426 53.427 70.359 53.411 70.312 C 53.396 70.264 53.387 70.24 53.387 70.24 L 53.366 70.238 C 53.383 70.301 53.401 70.368 53.419 70.439 C 53.454 70.578 53.487 70.718 53.518 70.86 C 53.551 70.996 53.581 71.12 53.607 71.233 C 53.635 71.341 53.653 71.426 53.661 71.488 L 53.807 72.429 C 53.814 72.461 53.8 72.486 53.764 72.505 L 53.492 72.654 L 52.762 71.978 C 52.72 71.939 52.66 71.88 52.581 71.8 C 52.503 71.714 52.415 71.619 52.317 71.514 C 52.219 71.409 52.121 71.304 52.022 71.2 C 51.973 71.146 51.925 71.095 51.88 71.045 L 51.867 71.069 C 51.867 71.069 51.883 71.089 51.914 71.128 C 51.943 71.163 51.986 71.217 52.041 71.289 C 52.094 71.358 52.156 71.444 52.228 71.548 C 52.302 71.646 52.381 71.757 52.464 71.881 C 52.55 72.002 52.638 72.136 52.728 72.281 C 52.825 72.43 52.916 72.582 53.002 72.738 L 53.572 73.739 C 53.593 73.779 53.596 73.812 53.581 73.842 C 53.567 73.871 53.513 73.912 53.42 73.968 C 53.331 74.022 53.185 74.104 52.98 74.216 L 50.784 70.195 C 50.752 70.137 50.746 70.096 50.765 70.075 C 50.782 70.051 50.807 70.03 50.838 70.013 L 51.341 69.738 L 52.603 70.938 C 52.684 71.011 52.755 71.081 52.816 71.145 C 52.876 71.209 52.926 71.263 52.967 71.308 C 53.006 71.353 53.036 71.388 53.055 71.413 C 53.077 71.435 53.088 71.447 53.089 71.448 C 53.089 71.447 53.083 71.432 53.073 71.403 C 53.061 71.374 53.048 71.33 53.031 71.272 C 53.013 71.21 52.993 71.14 52.97 71.06 C 52.95 70.978 52.931 70.887 52.911 70.785 L 52.578 69.218 L 52.572 69.182 C 52.569 69.149 52.568 69.124 52.57 69.107 C 52.575 69.079 52.596 69.055 52.631 69.035 C 52.816 68.935 52.946 68.863 53.021 68.823 C 53.1 68.78 53.147 68.754 53.163 68.745 C 53.178 68.737 53.186 68.733 53.187 68.733 L 55.382 72.753 Z M 59.095 70.152 C 59.129 70.183 59.137 70.219 59.118 70.262 C 59.099 70.304 59.029 70.371 58.905 70.462 C 58.866 70.492 58.816 70.527 58.755 70.566 C 58.698 70.609 58.628 70.659 58.546 70.714 L 57.723 69.988 L 57.001 70.527 L 57.412 71.4 C 57.432 71.441 57.435 71.483 57.423 71.526 C 57.411 71.563 57.343 71.628 57.221 71.719 C 57.181 71.749 57.124 71.788 57.049 71.839 C 56.975 71.89 56.898 71.938 56.82 71.984 L 54.97 67.64 C 54.928 67.554 54.981 67.455 55.128 67.345 C 55.179 67.307 55.231 67.271 55.284 67.237 C 55.341 67.2 55.39 67.172 55.432 67.152 L 59.095 70.151 Z M 38.984 64.326 C 39.475 64.201 39.473 64.196 39.581 64.699 C 39.941 66.369 40.302 68.039 40.664 69.709 C 40.753 70.116 40.869 70.515 40.988 70.98 C 41.012 71.032 40.923 71.054 40.854 71.089 C 40.332 71.349 40.283 71.309 40.134 70.735 C 39.611 68.722 39.296 66.66 38.78 64.644 C 38.725 64.43 38.805 64.371 38.984 64.326 Z M 28.732 63.713 C 28.789 63.363 28.991 63.5 29.164 63.511 C 29.422 63.527 29.56 63.568 29.489 63.928 C 29.159 65.627 28.764 67.312 28.43 69.011 C 28.355 69.375 28.301 69.741 28.252 70.11 C 28.219 70.36 28.139 70.524 27.876 70.423 C 27.415 70.408 27.428 70.409 27.497 69.967 C 27.822 67.865 28.392 65.811 28.732 63.713 Z M 55.811 68.186 C 55.884 68.306 55.957 68.434 56.031 68.57 C 56.108 68.704 56.181 68.834 56.249 68.963 C 56.315 69.078 56.376 69.196 56.431 69.317 L 56.704 69.897 L 57.199 69.527 L 56.718 69.102 C 56.627 69.019 56.531 68.927 56.429 68.83 C 56.324 68.728 56.219 68.621 56.112 68.51 C 56.006 68.398 55.905 68.29 55.811 68.187 Z M 58.237 64.857 C 58.432 64.773 58.636 64.77 58.848 64.845 C 59.06 64.914 59.295 65.081 59.552 65.344 C 59.766 65.562 59.914 65.769 59.998 65.963 C 60.082 66.152 60.117 66.33 60.106 66.498 C 60.104 66.526 60.101 66.553 60.097 66.58 C 60.178 66.593 60.273 66.614 60.381 66.643 C 60.571 66.69 60.79 66.784 61.04 66.923 C 61.292 67.059 61.563 67.266 61.852 67.542 C 61.896 67.587 61.914 67.633 61.903 67.681 C 61.893 67.722 61.822 67.807 61.69 67.936 C 61.649 67.977 61.599 68.022 61.541 68.072 C 61.484 68.122 61.423 68.176 61.358 68.232 C 61.076 67.955 60.824 67.745 60.603 67.604 C 60.379 67.458 60.19 67.361 60.035 67.311 C 59.929 67.273 59.84 67.248 59.769 67.236 C 59.744 67.264 59.718 67.291 59.691 67.317 L 59.658 67.35 L 60.835 68.555 C 60.867 68.587 60.881 68.618 60.877 68.646 C 60.873 68.674 60.835 68.728 60.761 68.806 C 60.69 68.882 60.566 69.005 60.389 69.178 L 57.187 65.902 L 57.149 65.845 C 57.128 65.803 57.141 65.759 57.189 65.712 L 57.536 65.374 L 57.642 65.27 C 57.844 65.072 58.043 64.935 58.238 64.858 Z M 48.218 61.246 C 48.234 61.237 48.346 61.381 48.402 61.461 C 49.347 62.846 50.287 64.234 51.237 65.616 C 51.543 66.061 51.873 66.489 52.192 66.925 C 51.605 67.442 51.63 67.424 51.173 66.816 C 49.979 65.233 48.968 63.527 47.799 61.927 C 47.735 61.842 47.559 61.736 47.666 61.625 C 47.815 61.467 48.023 61.356 48.218 61.246 Z M 58.391 65.554 C 58.328 65.547 58.27 65.569 58.219 65.619 L 58.089 65.746 L 59.172 66.854 L 59.268 66.76 C 59.32 66.71 59.347 66.651 59.351 66.584 C 59.355 66.518 59.324 66.432 59.258 66.326 C 59.193 66.215 59.079 66.075 58.915 65.908 C 58.802 65.793 58.702 65.705 58.613 65.647 C 58.528 65.586 58.453 65.555 58.39 65.554 Z M 61.161 62.097 C 61.204 62.132 61.225 62.163 61.225 62.192 C 61.228 62.217 61.214 62.249 61.182 62.288 L 60.732 62.848 L 63.764 65.295 C 63.799 65.323 63.817 65.351 63.817 65.38 C 63.817 65.409 63.785 65.468 63.72 65.555 C 63.659 65.638 63.55 65.778 63.395 65.971 L 60.258 63.439 L 59.74 64.084 L 59.293 63.722 C 59.223 63.665 59.216 63.602 59.272 63.531 L 60.714 61.736 L 61.163 62.097 Z M 19.209 58.891 C 19.329 58.706 19.414 58.721 19.574 58.834 C 19.986 59.123 19.997 59.12 19.695 59.527 C 18.668 60.91 17.635 62.286 16.61 63.671 C 16.35 64.023 16.112 64.392 15.864 64.752 C 15.821 64.811 15.797 64.895 15.705 64.896 C 15.511 64.785 15.304 64.703 15.148 64.565 C 15.057 64.483 15.205 64.373 15.263 64.287 C 16.259 62.796 17.381 61.404 18.442 59.963 C 18.704 59.609 18.97 59.259 19.209 58.891 Z M 65.699 62.556 C 65.738 62.58 65.758 62.607 65.761 62.635 C 65.764 62.663 65.738 62.724 65.684 62.818 C 65.632 62.907 65.537 63.06 65.399 63.275 L 61.7 60.916 C 61.605 60.856 61.545 60.804 61.52 60.761 C 61.493 60.718 61.506 60.649 61.557 60.553 C 61.608 60.458 61.7 60.303 61.836 60.092 Z M 35.871 49.758 C 36.174 49.653 36.226 49.872 36.288 50.147 C 37.156 54.013 38.031 57.879 38.913 61.742 C 38.955 61.927 39.01 62.076 38.739 62.086 C 38.521 62.094 38.255 62.348 38.154 61.888 C 37.693 59.791 37.203 57.7 36.729 55.605 C 36.317 53.785 35.909 51.964 35.505 50.141 C 35.419 49.759 35.422 49.758 35.871 49.758 Z M 31.368 50.226 C 31.454 49.779 31.686 49.637 32.13 49.756 C 32.267 49.796 32.195 49.866 32.198 49.945 C 32.006 50.93 31.81 51.923 31.617 52.919 C 31.105 55.559 30.594 58.201 30.083 60.842 C 30.077 60.875 30.076 60.91 30.069 60.942 C 29.99 61.334 29.685 61.464 29.333 61.258 C 29.2 61.179 29.259 61.053 29.279 60.954 C 29.485 59.871 29.7 58.791 29.911 57.709 C 30.397 55.215 30.883 52.72 31.368 50.226 Z M 67.875 58.518 C 67.919 58.53 67.943 58.559 67.945 58.606 C 67.947 58.652 67.914 58.744 67.847 58.88 C 67.826 58.924 67.797 58.978 67.761 59.04 C 67.729 59.104 67.689 59.181 67.641 59.267 L 66.582 58.993 L 66.185 59.797 L 66.945 60.388 C 66.982 60.416 67.004 60.453 67.012 60.497 C 67.018 60.535 66.988 60.623 66.92 60.759 C 66.899 60.803 66.866 60.865 66.822 60.943 C 66.778 61.021 66.732 61.099 66.685 61.176 L 63.076 58.146 C 62.999 58.088 63.002 57.976 63.083 57.812 C 63.111 57.755 63.141 57.7 63.173 57.645 C 63.206 57.587 63.238 57.539 63.265 57.503 L 67.874 58.518 Z M 40.072 49.758 C 40.264 49.746 40.319 49.889 40.399 50.004 C 42.328 52.766 44.255 55.528 46.182 58.292 C 46.388 58.59 46.595 58.882 46.811 59.171 C 46.919 59.32 46.928 59.421 46.752 59.514 C 46.664 59.564 46.581 59.623 46.505 59.689 C 46.375 59.797 46.297 59.787 46.19 59.633 C 43.922 56.37 41.649 53.109 39.371 49.851 C 39.36 49.821 39.351 49.789 39.346 49.758 C 39.605 49.758 39.84 49.769 40.072 49.758 Z M 54.326 55.591 C 54.452 55.256 54.625 55.309 54.874 55.484 C 56.113 56.358 57.367 57.217 58.62 58.076 C 59.074 58.387 59.542 58.679 60.001 58.984 C 60.06 59.023 60.161 59.034 60.138 59.181 C 60.048 59.33 59.967 59.543 59.823 59.69 C 59.729 59.787 59.607 59.628 59.508 59.566 C 58.202 58.746 56.957 57.836 55.689 56.961 C 55.241 56.654 54.802 56.343 54.346 56.057 C 54.154 55.937 54.122 55.833 54.271 55.676 C 54.295 55.652 54.314 55.622 54.326 55.591 Z M 64.069 58.251 C 64.188 58.325 64.311 58.406 64.438 58.493 C 64.567 58.577 64.691 58.66 64.811 58.744 C 64.928 58.821 65.035 58.899 65.132 58.977 L 65.637 59.37 L 65.909 58.817 L 65.29 58.657 C 65.171 58.624 65.044 58.586 64.909 58.545 C 64.77 58.501 64.629 58.454 64.483 58.402 C 64.338 58.351 64.2 58.301 64.069 58.251 Z M 33.518 54.144 C 33.531 53.97 33.602 53.938 33.747 53.955 C 33.836 53.97 33.926 53.975 34.016 53.972 C 34.274 53.949 34.3 54.08 34.283 54.3 C 34.195 55.443 34.043 56.584 34.02 57.73 C 34.016 57.913 33.952 57.953 33.783 57.953 C 33.267 57.967 33.267 57.973 33.269 57.201 C 33.344 56.295 33.439 55.219 33.518 54.144 Z M 39.31 53.837 C 39.775 53.661 39.777 53.653 39.937 54.117 C 40.228 54.963 40.511 55.81 40.801 56.652 C 40.881 56.889 40.974 57.117 41.068 57.367 C 40.977 57.497 40.805 57.507 40.683 57.591 C 40.459 57.749 40.351 57.682 40.265 57.422 C 39.907 56.334 39.535 55.252 39.15 54.174 C 39.075 53.963 39.131 53.905 39.31 53.837 Z M 25.582 50.1 C 25.766 49.842 25.945 49.705 26.264 49.754 C 26.433 49.767 26.604 49.769 26.774 49.758 L 24.772 52.527 C 23.689 54.025 22.6 55.518 21.527 57.023 C 21.374 57.239 21.265 57.262 21.092 57.084 C 20.957 56.944 20.629 56.929 20.885 56.58 C 22.464 54.429 24.03 52.269 25.582 50.1 Z M 68.233 55.938 L 68.547 55.042 L 69.088 55.231 C 69.139 55.249 69.169 55.273 69.176 55.305 C 69.186 55.332 69.184 55.364 69.17 55.402 L 68.651 56.883 L 64.376 55.387 C 64.317 55.366 64.279 55.341 64.26 55.311 C 64.242 55.281 64.248 55.216 64.278 55.117 C 64.309 55.014 64.366 54.845 64.447 54.612 L 68.232 55.937 Z M 27.697 52.43 C 27.928 52.005 28.268 51.91 28.717 52.146 C 28.132 53.207 27.554 54.259 26.968 55.306 C 26.901 55.426 26.868 55.646 26.718 55.628 C 26.507 55.594 26.306 55.512 26.132 55.388 C 26.012 55.306 26.163 55.191 26.207 55.106 C 26.688 54.231 27.177 53.361 27.664 52.489 Z M 11.789 50.76 C 11.967 50.656 12.062 50.647 12.147 50.852 C 12.213 50.984 12.287 51.112 12.37 51.234 C 12.359 51.375 12.221 51.394 12.137 51.442 C 10.895 52.125 9.657 52.817 8.401 53.475 C 7.58 53.904 6.798 54.388 5.997 54.845 C 5.793 54.962 5.706 54.907 5.606 54.747 C 5.581 54.697 5.55 54.65 5.512 54.608 C 5.324 54.426 5.363 54.309 5.587 54.184 C 6.305 53.79 7.01 53.371 7.73 52.979 C 9.084 52.242 10.459 51.542 11.789 50.76 Z M 44.36 51.385 C 45.181 52.331 45.987 53.272 46.805 54.205 C 46.907 54.322 46.931 54.4 46.805 54.503 C 46.717 54.575 46.639 54.657 46.569 54.746 C 46.463 54.884 46.384 54.891 46.263 54.746 C 45.486 53.838 44.704 52.934 43.917 52.034 C 43.824 51.928 43.81 51.863 43.93 51.769 C 44.078 51.66 44.213 51.52 44.36 51.385 Z M 45.096 49.803 C 45.974 49.602 46.653 49.912 47.343 50.399 C 49.037 51.6 50.78 52.735 52.511 53.884 C 52.727 54.028 52.713 54.141 52.555 54.286 C 52.422 54.406 52.443 54.775 52.083 54.529 C 49.802 52.978 47.511 51.442 45.222 49.899 C 45.179 49.871 45.142 49.836 45.096 49.803 Z M 34.089 49.754 C 34.579 49.763 34.579 49.754 34.551 50.231 C 34.502 50.983 34.447 51.735 34.402 52.487 C 34.378 52.923 34.072 52.685 33.88 52.711 C 33.656 52.741 33.613 52.627 33.631 52.413 C 33.702 51.617 33.761 50.82 33.797 50.023 C 33.807 49.793 33.881 49.749 34.089 49.754 Z M 37.613 49.769 C 38.136 49.745 38.482 49.973 38.652 50.452 C 38.858 51.034 39.051 51.62 39.273 52.196 C 39.358 52.419 39.344 52.52 39.096 52.595 C 38.648 52.732 38.648 52.744 38.498 52.306 C 38.201 51.463 37.91 50.62 37.613 49.769 Z M 70.605 48.406 C 70.651 48.404 70.682 48.425 70.698 48.468 C 70.714 48.511 70.71 48.609 70.686 48.76 C 70.679 48.808 70.667 48.868 70.651 48.938 C 70.64 49.009 70.624 49.093 70.604 49.19 L 69.511 49.24 L 69.37 50.126 L 70.271 50.466 C 70.314 50.482 70.346 50.51 70.367 50.55 C 70.385 50.584 70.381 50.678 70.357 50.828 C 70.35 50.877 70.336 50.945 70.317 51.033 C 70.299 51.121 70.278 51.209 70.255 51.296 L 65.912 49.467 C 65.822 49.434 65.791 49.327 65.82 49.145 C 65.83 49.083 65.843 49.021 65.857 48.96 C 65.872 48.895 65.888 48.84 65.903 48.797 L 70.607 48.406 Z M 28.891 50.235 C 29.09 49.672 29.492 49.74 29.934 49.766 C 29.943 49.766 29.952 49.769 29.96 49.774 C 29.967 49.778 29.973 49.785 29.978 49.793 C 29.986 49.809 29.986 49.828 29.978 49.844 C 29.789 50.197 29.613 50.515 29.448 50.843 C 29.361 51.015 29.278 51.017 29.115 50.924 C 28.667 50.672 28.72 50.701 28.891 50.234 Z M 42.285 49.729 C 42.815 49.703 43.152 49.898 43.435 50.299 L 43.462 50.339 C 43.465 50.343 43.469 50.348 43.469 50.352 L 43.482 50.374 L 43.487 50.387 C 43.49 50.394 43.496 50.4 43.496 50.407 L 43.496 50.468 C 43.493 50.473 43.491 50.478 43.489 50.482 C 43.487 50.488 43.484 50.494 43.482 50.499 C 43.479 50.505 43.47 50.51 43.47 50.515 C 43.466 50.522 43.462 50.528 43.457 50.533 C 43.453 50.542 43.446 50.542 43.443 50.551 L 43.425 50.569 C 43.009 50.973 43.013 50.978 42.627 50.546 C 42.526 50.431 42.425 50.32 42.324 50.207 C 42.225 50.095 42.125 49.983 42.025 49.869 C 42.019 49.858 41.968 49.788 41.944 49.753 C 41.943 49.751 41.942 49.749 41.941 49.746 C 41.941 49.744 41.941 49.742 41.943 49.74 C 41.943 49.737 41.946 49.736 41.948 49.734 C 41.95 49.734 41.952 49.733 41.954 49.733 C 42.022 49.728 42.21 49.728 42.285 49.728 Z M 22.708 44.668 C 22.719 44.668 22.73 44.672 22.74 44.678 C 22.75 44.683 22.758 44.692 22.763 44.702 C 22.768 44.713 22.771 44.724 22.771 44.735 C 22.771 44.746 22.768 44.757 22.763 44.767 C 22.574 45.096 22.389 45.419 22.204 45.743 C 22.146 45.826 22.065 45.891 21.971 45.93 C 19.557 47.286 17.145 48.643 14.732 50 C 14.547 50.105 14.491 50.053 14.406 49.903 C 14.147 49.446 14.144 49.455 14.598 49.197 C 17.25 47.713 19.898 46.228 22.544 44.743 C 22.592 44.716 22.633 44.669 22.708 44.668 Z M 68.176 49.301 C 68.053 49.304 67.921 49.306 67.779 49.306 C 67.634 49.306 67.484 49.303 67.33 49.297 C 67.176 49.291 67.03 49.282 66.89 49.274 C 67.026 49.309 67.167 49.35 67.314 49.397 C 67.461 49.438 67.605 49.482 67.744 49.526 C 67.879 49.566 68.003 49.608 68.119 49.655 L 68.717 49.881 L 68.814 49.273 L 68.175 49.302 Z M 57.563 47.741 C 57.563 47.491 57.712 47.517 57.904 47.566 C 59.454 47.947 61.005 48.32 62.559 48.684 C 62.953 48.778 63.35 48.857 63.748 48.933 C 63.884 48.96 63.962 49.004 63.936 49.094 C 63.924 49.176 63.92 49.198 63.917 49.221 C 63.854 49.742 63.858 49.725 63.331 49.623 C 61.452 49.259 59.622 48.688 57.744 48.321 C 57.276 48.23 57.565 47.943 57.563 47.741 Z M 51.253 46.045 C 52.085 46.232 52.87 46.407 53.654 46.586 C 54.202 46.712 54.746 46.86 55.299 46.959 C 55.562 47.008 55.611 47.108 55.523 47.332 C 55.492 47.404 55.473 47.482 55.467 47.561 C 55.459 47.738 55.368 47.759 55.22 47.726 C 54.081 47.463 52.94 47.202 51.799 46.943 C 51.749 46.935 51.702 46.916 51.662 46.886 C 51.622 46.856 51.589 46.817 51.567 46.771 C 51.457 46.561 51.336 46.359 51.196 46.12 C 51.192 46.111 51.19 46.101 51.191 46.091 C 51.192 46.081 51.196 46.072 51.202 46.064 C 51.208 46.057 51.216 46.051 51.225 46.047 C 51.234 46.044 51.243 46.043 51.253 46.044 Z M 36.613 44.73 C 36.705 44.723 36.792 44.769 36.837 44.848 C 37.434 45.723 38.034 46.597 38.637 47.469 L 38.716 47.591 C 38.528 47.597 37.936 47.719 37.631 47.397 C 37.545 47.306 37.681 47.535 37.527 47.571 C 37.124 47.662 36.825 47.53 36.689 47.138 C 36.41 46.333 36.131 45.528 35.854 44.73 C 36.106 44.73 36.36 44.735 36.613 44.73 Z M 37.53 44.649 C 38.134 44.186 38.611 44.452 39.138 44.833 C 40.351 45.709 41.604 46.53 42.84 47.374 C 42.893 47.41 42.971 47.424 42.99 47.477 C 42.99 47.48 42.991 47.483 42.991 47.486 C 42.991 47.489 42.99 47.491 42.989 47.494 C 42.987 47.497 42.986 47.5 42.983 47.502 C 42.981 47.504 42.978 47.506 42.975 47.506 C 41.774 47.906 41.019 46.989 40.131 46.463 C 40.126 46.46 40.121 46.46 40.116 46.461 C 40.11 46.463 40.107 46.465 40.103 46.468 C 40.1 46.472 40.098 46.477 40.098 46.482 C 40.098 46.486 40.099 46.492 40.102 46.496 C 40.263 46.682 40.425 46.865 40.586 47.052 C 40.703 47.187 40.819 47.323 40.969 47.499 C 40.973 47.504 40.976 47.512 40.977 47.518 C 40.978 47.526 40.977 47.533 40.974 47.539 C 40.971 47.546 40.966 47.551 40.96 47.556 C 40.954 47.559 40.946 47.562 40.94 47.562 L 40.162 47.562 C 40.032 47.562 39.957 47.488 39.881 47.401 L 37.529 44.682 C 37.529 44.682 37.525 44.678 37.524 44.675 C 37.522 44.672 37.522 44.669 37.522 44.666 C 37.522 44.663 37.522 44.66 37.524 44.657 C 37.525 44.654 37.527 44.651 37.529 44.649 Z M 32.862 42.867 C 33.056 43.082 33.221 43.277 33.399 43.458 C 33.487 43.548 33.467 43.633 33.446 43.736 C 33.204 44.929 32.965 46.122 32.727 47.315 C 32.686 47.52 32.112 47.693 31.952 47.544 C 31.883 47.48 31.93 47.395 31.945 47.321 C 32.028 46.891 32.111 46.46 32.193 46.029 C 32.206 46.003 32.208 45.974 32.2 45.947 C 32.173 45.912 32.139 45.919 32.118 45.957 C 31.855 46.429 31.595 46.902 31.33 47.374 C 31.249 47.518 30.547 47.666 30.448 47.551 C 30.36 47.449 30.476 47.363 30.523 47.282 C 31.068 46.286 31.623 45.296 32.165 44.3 C 32.413 43.839 32.726 43.411 32.862 42.867 Z M 34.131 44.094 C 34.441 44.232 34.693 44.352 34.952 44.456 C 35.049 44.496 35.049 44.576 35.065 44.647 C 35.279 45.611 35.49 46.577 35.704 47.545 C 35.225 47.577 34.919 47.425 34.787 47.09 C 34.705 47.266 34.901 47.593 34.475 47.57 C 33.998 47.544 33.987 47.57 34.016 47.086 C 34.063 46.309 34.123 45.533 34.181 44.757 C 34.196 44.55 34.242 44.344 34.131 44.094 Z M 32.142 41.154 C 32.165 41.179 32.174 41.184 32.175 41.192 C 32.257 41.49 32.445 41.814 32.389 42.087 C 32.333 42.359 32.031 42.591 31.844 42.845 C 30.827 44.229 29.783 45.595 28.813 47.012 C 28.46 47.529 28.071 47.653 27.473 47.522 L 30.137 43.869 C 29.969 43.821 29.901 43.937 29.82 43.997 C 28.327 45.088 26.841 46.185 25.348 47.274 C 25.251 47.348 25.145 47.535 25.013 47.418 C 24.86 47.268 24.734 47.093 24.64 46.9 C 24.6 46.826 24.727 46.79 24.786 46.751 C 27.002 45.125 29.22 43.501 31.44 41.88 C 31.718 41.685 31.956 41.438 32.142 41.154 Z M 39.563 43.445 C 39.676 43.33 39.792 43.366 39.907 43.393 C 42.601 44.02 45.296 44.651 47.994 45.284 C 48.05 45.292 48.103 45.312 48.149 45.343 C 48.196 45.375 48.234 45.416 48.263 45.466 C 48.394 45.712 48.537 45.952 48.698 46.232 L 41.961 44.666 C 42.036 44.815 42.158 44.841 42.254 44.89 C 43.523 45.566 44.8 46.237 46.069 46.917 C 46.158 46.965 46.367 46.971 46.277 47.149 C 46.199 47.304 46.188 47.541 45.935 47.559 C 45.777 47.573 45.619 47.539 45.479 47.464 C 43.326 46.317 41.174 45.171 39.022 44.025 C 39.003 44.015 38.99 43.993 38.966 43.967 C 39.166 43.792 39.375 43.628 39.563 43.445 Z M 66.808 44.505 C 67.011 44.411 67.297 44.373 67.664 44.391 C 67.97 44.406 68.219 44.457 68.413 44.543 C 68.603 44.624 68.75 44.73 68.856 44.861 C 68.873 44.883 68.891 44.905 68.905 44.927 C 68.973 44.882 69.057 44.833 69.157 44.781 C 69.328 44.686 69.553 44.605 69.83 44.537 C 70.108 44.466 70.447 44.433 70.847 44.439 C 70.91 44.442 70.954 44.464 70.979 44.506 C 71 44.543 71.005 44.654 70.996 44.837 C 70.993 44.895 70.988 44.962 70.979 45.038 C 70.971 45.114 70.963 45.195 70.954 45.28 C 70.558 45.27 70.232 45.287 69.973 45.333 C 69.709 45.378 69.504 45.436 69.357 45.505 C 69.254 45.549 69.172 45.591 69.111 45.63 C 69.111 45.668 69.111 45.705 69.109 45.742 L 69.107 45.789 L 70.79 45.872 C 70.835 45.874 70.865 45.887 70.882 45.91 C 70.9 45.933 70.907 45.999 70.906 46.107 C 70.906 46.211 70.9 46.385 70.887 46.632 L 66.308 46.407 C 66.308 46.407 66.286 46.402 66.242 46.391 C 66.198 46.375 66.177 46.334 66.181 46.266 L 66.192 46.044 L 66.197 45.93 L 66.205 45.782 L 66.205 45.781 L 66.212 45.634 C 66.226 45.352 66.278 45.116 66.368 44.927 C 66.454 44.733 66.6 44.593 66.807 44.504 Z M 67.582 45.237 C 67.42 45.229 67.288 45.234 67.184 45.251 C 67.08 45.264 67.004 45.291 66.957 45.334 C 66.905 45.372 66.878 45.428 66.875 45.499 L 66.866 45.681 L 68.414 45.757 L 68.421 45.623 C 68.425 45.551 68.405 45.49 68.363 45.438 C 68.32 45.387 68.239 45.344 68.12 45.311 C 67.996 45.274 67.817 45.249 67.583 45.237 Z M 49.499 43.19 C 50.304 43.285 51.073 43.382 51.845 43.461 C 52.213 43.499 52.048 43.76 52.075 43.944 C 52.114 44.205 52.038 44.29 51.747 44.229 C 51.328 44.142 50.901 44.092 50.473 44.08 C 50.1 44.069 49.856 43.944 49.727 43.587 C 49.678 43.452 49.584 43.335 49.499 43.19 Z M 20.523 42.17 C 20.677 42.136 20.789 42.145 20.8 42.345 C 20.805 42.446 20.829 42.545 20.869 42.638 C 20.956 42.828 20.885 42.88 20.698 42.917 C 19.618 43.133 18.54 43.365 17.462 43.588 C 17.188 43.644 16.917 43.719 16.593 43.798 C 16.545 43.815 16.496 43.76 16.467 43.677 C 16.418 43.539 16.375 43.4 16.325 43.262 C 16.275 43.125 16.325 43.066 16.469 43.039 C 17.821 42.754 19.172 42.462 20.523 42.17 Z M 45.51 41.093 C 45.87 41.035 45.834 41.367 45.975 41.521 C 46.137 41.699 46.09 41.792 45.843 41.829 C 44.764 41.987 43.687 42.157 42.607 42.359 L 45.493 42.706 C 45.866 42.75 46.232 42.802 46.603 42.834 C 46.652 42.837 46.7 42.853 46.74 42.881 C 46.781 42.91 46.812 42.949 46.831 42.995 C 46.943 43.201 47.063 43.403 47.219 43.675 L 40.11 42.825 C 40.26 42.526 40.398 42.255 40.521 41.979 C 40.579 41.848 40.687 41.843 40.797 41.83 C 42.368 41.585 43.94 41.345 45.51 41.093 Z M 32.17 39.419 C 32.149 39.742 32.126 40.026 32.115 40.313 C 32.111 40.402 32.057 40.425 31.996 40.454 C 30.065 41.348 28.258 42.479 26.382 43.479 C 26.257 43.546 26.147 43.653 25.963 43.658 C 26.174 43.29 26.38 42.942 26.577 42.589 C 26.651 42.475 26.757 42.386 26.882 42.33 C 27.561 41.954 28.241 41.579 28.922 41.205 C 28.956 41.187 28.981 41.161 28.96 41.137 C 28.938 41.112 28.887 41.119 28.85 41.131 L 27.232 41.467 C 27.392 41.188 27.53 40.945 27.669 40.701 C 27.731 40.588 27.836 40.56 27.948 40.536 C 29.015 40.308 30.08 40.07 31.15 39.856 C 31.51 39.781 31.816 39.602 32.17 39.419 Z M 66.751 40.667 C 66.805 40.665 66.841 40.674 66.86 40.696 C 66.879 40.713 66.889 40.746 66.891 40.796 L 66.923 41.509 L 70.795 41.333 C 70.84 41.331 70.872 41.341 70.891 41.363 C 70.909 41.384 70.923 41.449 70.933 41.556 C 70.942 41.659 70.953 41.834 70.964 42.081 L 66.957 42.262 L 66.994 43.083 L 66.422 43.109 C 66.332 43.113 66.285 43.07 66.281 42.981 L 66.177 40.693 L 66.749 40.667 Z M 24.721 41.251 C 24.728 41.25 24.735 41.251 24.742 41.253 C 24.748 41.256 24.754 41.26 24.759 41.266 C 24.763 41.272 24.766 41.278 24.766 41.286 C 24.766 41.293 24.766 41.3 24.762 41.307 C 24.617 41.56 24.495 41.773 24.377 41.986 C 24.291 42.139 24.142 42.135 23.937 42.189 C 23.677 42.252 23.011 42.394 22.838 42.431 C 22.81 42.437 22.783 42.445 22.756 42.455 C 22.426 42.567 22.263 42.564 22.261 42.265 C 22.257 42.176 22.237 42.089 22.203 42.006 C 22.151 41.869 22.192 41.799 22.332 41.768 C 23.107 41.602 23.88 41.433 24.721 41.251 Z M 7.838 40.39 C 8.202 40.267 8.133 40.575 8.177 40.792 C 8.23 41.055 8.138 41.125 7.869 41.155 C 5.816 41.379 3.754 41.506 1.7 41.711 C 1.276 41.753 0.85 41.813 0.431 41.881 C 0.18 41.921 0.068 41.867 0.031 41.6 C -0.029 41.167 -0.044 41.171 0.397 41.111 C 2.197 40.867 4.009 40.75 5.818 40.595 C 6.477 40.539 7.138 40.462 7.838 40.39 Z M 54.994 39.579 C 55.484 39.483 55.287 39.888 55.367 40.072 C 55.462 40.291 55.282 40.31 55.11 40.337 C 53.096 40.655 51.084 40.978 49.073 41.307 C 48.39 41.416 48.37 41.415 48.096 40.694 L 53.293 39.856 C 53.86 39.765 54.431 39.69 54.994 39.579 Z M 43.749 38.1 C 43.91 37.996 43.985 38.018 44.056 38.193 C 44.096 38.286 44.148 38.374 44.211 38.453 C 44.328 38.602 44.266 38.683 44.116 38.776 C 43.534 39.137 42.96 39.512 42.4 39.931 C 43.024 39.754 43.655 39.599 44.266 39.393 C 44.599 39.282 44.788 39.341 44.909 39.67 C 44.937 39.74 44.971 39.807 45.011 39.871 C 45.018 39.882 45.022 39.896 45.023 39.909 C 45.024 39.923 45.022 39.937 45.016 39.95 C 45.011 39.962 45.003 39.973 44.993 39.983 C 44.983 39.992 44.971 39.999 44.958 40.003 L 40.79 41.171 C 40.79 40.785 40.861 40.438 40.817 40.09 C 40.8 39.959 40.901 39.917 40.984 39.863 C 41.907 39.276 42.832 38.694 43.749 38.1 Z M 26.09 38.537 C 26.165 38.531 26.253 38.481 26.302 38.577 C 26.336 38.645 26.262 38.691 26.242 38.749 C 26.083 39.21 25.76 39.357 25.276 39.393 C 23.768 39.508 22.264 39.68 20.759 39.831 C 18.905 40.02 17.052 40.211 15.201 40.401 C 13.898 40.535 12.597 40.678 11.294 40.804 C 10.794 40.849 10.739 40.785 10.751 40.267 C 10.713 40.098 10.833 40.078 10.968 40.064 C 12.124 39.95 13.28 39.835 14.436 39.717 C 16.086 39.546 17.735 39.367 19.386 39.195 C 20.833 39.046 22.283 38.91 23.732 38.769 Z M 63.941 38.165 C 64.046 38.15 64.249 38.068 64.3 38.203 C 64.384 38.399 64.438 38.606 64.461 38.817 C 64.466 38.901 64.27 38.896 64.168 38.913 C 63.314 39.062 61.363 39.39 60.505 39.51 C 59.563 39.639 58.617 39.745 57.684 39.932 C 57.399 39.988 57.321 39.924 57.256 39.633 C 57.177 39.276 57.275 39.208 57.608 39.163 C 59.081 38.963 60.549 38.733 62.019 38.508 C 62.296 38.463 63.669 38.22 63.941 38.165 Z M 69.188 36.849 C 69.41 36.817 69.627 36.822 69.838 36.866 C 70.044 36.904 70.221 37.002 70.371 37.158 C 70.521 37.314 70.62 37.554 70.668 37.878 C 70.712 38.176 70.7 38.402 70.632 38.557 C 70.559 38.712 70.465 38.798 70.35 38.815 C 70.274 38.825 70.185 38.824 70.083 38.812 C 69.979 38.8 69.878 38.771 69.784 38.725 C 69.836 38.645 69.876 38.546 69.904 38.429 C 69.928 38.311 69.931 38.194 69.913 38.074 C 69.886 37.892 69.82 37.772 69.717 37.713 C 69.613 37.655 69.483 37.637 69.327 37.66 C 69.211 37.676 69.105 37.713 69.01 37.772 C 68.914 37.827 68.798 37.922 68.664 38.059 L 67.938 38.781 C 67.755 38.961 67.593 39.086 67.448 39.157 C 67.304 39.227 67.158 39.273 67.011 39.293 C 66.708 39.336 66.449 39.271 66.233 39.097 C 66.012 38.924 65.873 38.643 65.816 38.251 C 65.766 37.913 65.765 37.673 65.812 37.53 C 65.859 37.388 65.941 37.308 66.056 37.291 C 66.118 37.283 66.19 37.286 66.269 37.302 C 66.344 37.318 66.422 37.353 66.502 37.405 C 66.481 37.444 66.463 37.522 66.448 37.637 C 66.433 37.752 66.435 37.875 66.454 38.004 C 66.478 38.168 66.526 38.293 66.598 38.378 C 66.665 38.464 66.756 38.499 66.873 38.482 C 66.975 38.468 67.068 38.437 67.152 38.388 C 67.23 38.336 67.323 38.26 67.432 38.159 L 68.158 37.403 C 68.34 37.214 68.508 37.081 68.665 37.004 C 68.822 36.928 68.996 36.876 69.188 36.849 Z M 42.124 34.861 C 42.24 35.058 42.332 35.234 42.446 35.401 C 42.545 35.544 42.528 35.65 42.434 35.792 C 42.086 36.314 41.752 36.85 41.418 37.385 C 41.363 37.47 41.249 37.543 41.308 37.705 C 41.79 37.302 42.269 36.913 42.734 36.512 C 42.899 36.368 42.993 36.313 43.119 36.56 C 43.395 37.098 43.422 36.925 42.983 37.299 C 42.237 37.933 41.481 38.555 40.696 39.208 C 40.534 38.797 40.398 38.397 40.161 38.05 C 40.106 37.969 40.167 37.922 40.199 37.872 C 40.834 36.876 41.468 35.882 42.124 34.861 Z M 50.646 37.62 C 50.847 37.562 50.955 37.578 50.993 37.801 C 51.017 37.887 51.053 37.971 51.101 38.047 C 51.19 38.221 51.128 38.292 50.947 38.341 C 49.992 38.595 49.037 38.853 48.087 39.127 C 47.906 39.179 47.852 39.137 47.813 38.973 C 47.775 38.809 47.711 38.631 47.657 38.458 C 48.656 38.179 49.654 37.908 50.646 37.62 Z M 29.406 37.684 C 29.492 37.525 29.611 37.539 29.747 37.564 L 31.807 37.942 C 32.147 38.005 32.478 37.896 32.837 37.895 C 32.701 38.167 32.571 38.424 32.444 38.682 C 32.431 38.719 32.404 38.748 32.371 38.768 C 32.337 38.787 32.298 38.794 32.26 38.787 C 31.127 38.734 30.013 38.949 28.889 39.033 C 28.822 39.038 28.754 39.034 28.636 39.034 C 28.908 38.56 29.165 38.126 29.406 37.684 Z M 26.366 36.977 C 26.532 37.006 26.697 37.063 26.863 37.063 C 27.222 37.063 27.124 37.212 27.017 37.421 C 26.873 37.705 26.728 37.837 26.359 37.765 C 24.912 37.484 23.455 37.253 22.003 36.999 C 21.858 36.974 21.641 36.962 21.756 36.728 C 21.842 36.559 21.683 36.261 21.933 36.21 Z M 51.804 32.919 C 52.186 32.669 52.182 33.004 52.326 33.152 C 52.53 33.358 52.406 33.45 52.22 33.569 C 50.309 34.796 48.4 36.026 46.493 37.26 C 46.41 37.315 46.319 37.363 46.216 37.423 C 46.096 37.394 46.093 37.259 46.025 37.181 C 45.793 36.914 45.834 36.75 46.153 36.55 C 48.047 35.357 49.931 34.146 51.804 32.919 Z M 30.786 35.292 C 30.872 35.131 30.941 35.126 31.089 35.217 C 31.681 35.585 32.292 35.922 32.875 36.302 C 33.218 36.53 33.622 36.579 33.992 36.748 C 33.757 36.958 33.566 37.211 33.313 37.33 C 33.038 37.46 32.814 37.147 32.544 37.077 C 31.75 36.874 30.968 36.63 30.16 36.392 C 30.38 36.01 30.592 35.656 30.786 35.292 Z M 36.912 25.794 C 37.2 26.288 37.584 26.951 37.849 27.456 C 38.073 27.88 38.06 28.369 38.14 28.829 C 38.39 30.265 38.61 31.707 38.843 33.146 C 38.868 33.213 38.857 33.32 38.957 33.213 C 39.095 32.209 39.232 31.205 39.369 30.201 C 39.606 30.654 40.06 30.973 39.956 31.607 C 39.717 33.062 39.557 34.529 39.366 35.991 C 39.362 36.033 39.338 36.095 39.361 36.114 C 39.384 36.134 39.425 36.076 39.436 36.053 L 40.946 32.812 C 41.095 33.071 41.213 33.287 41.348 33.492 C 41.417 33.598 41.381 33.68 41.338 33.773 C 40.804 34.91 40.265 36.046 39.74 37.187 C 39.652 37.379 39.591 37.336 39.491 37.22 C 39.441 37.158 39.381 37.106 39.312 37.066 C 38.682 36.768 38.539 36.234 38.442 35.575 C 37.994 32.558 37.485 29.551 36.998 26.54 C 36.971 26.374 36.935 26.212 36.91 26.045 C 36.897 25.961 36.85 25.778 36.912 25.794 Z M 15.478 35.267 C 15.499 35.125 15.531 35.054 15.68 35.108 C 16.777 35.24 17.851 35.492 18.935 35.681 C 19.333 35.751 19.731 35.83 20.129 35.892 C 20.286 35.917 20.324 35.974 20.296 36.136 C 20.202 36.688 20.211 36.683 19.68 36.594 C 18.416 36.385 17.169 36.081 15.897 35.914 C 15.395 35.849 15.403 35.829 15.478 35.267 Z M 32.473 32.397 C 33.545 33.59 34.323 35.011 35.554 36.077 C 35.287 36.169 35.017 36.257 34.752 36.358 C 34.724 36.374 34.691 36.38 34.659 36.374 C 34.627 36.368 34.598 36.35 34.578 36.325 C 33.76 35.512 32.786 34.897 31.878 34.197 C 31.613 33.993 31.563 33.849 31.77 33.601 C 31.838 33.503 31.898 33.399 31.949 33.292 L 32.382 33.595 C 32.395 33.331 32.009 33.243 32.134 32.977 C 32.228 32.775 32.358 32.59 32.473 32.397 Z M 35.002 28.029 C 35.002 28.029 35.007 28.029 35.009 28.031 C 35.011 28.032 35.013 28.034 35.013 28.036 C 35.213 28.726 35.399 29.363 35.581 30.002 C 36.079 31.752 36.576 33.501 37.074 35.251 C 37.16 35.549 37.364 35.791 37.505 36.082 C 37.506 36.084 37.506 36.086 37.505 36.088 C 37.505 36.09 37.504 36.092 37.503 36.094 C 37.502 36.096 37.5 36.097 37.498 36.098 C 37.496 36.098 37.494 36.099 37.492 36.099 C 37.193 36.065 36.903 36.031 36.615 36 C 36.582 35.999 36.549 35.989 36.522 35.971 C 36.494 35.953 36.472 35.927 36.458 35.897 C 35.651 34.388 34.692 32.971 33.819 31.502 C 33.789 31.453 33.762 31.404 33.732 31.357 C 33.334 30.729 33.333 30.714 33.832 30.101 C 33.834 30.099 33.836 30.098 33.837 30.098 L 33.843 30.098 C 33.845 30.098 33.847 30.099 33.848 30.101 C 33.85 30.102 33.851 30.104 33.851 30.106 L 35.601 32.945 C 35.601 32.945 35.603 32.948 35.604 32.949 C 35.604 32.95 35.606 32.95 35.607 32.951 C 35.609 32.951 35.61 32.952 35.612 32.952 C 35.613 32.952 35.615 32.952 35.616 32.951 C 35.618 32.951 35.619 32.95 35.62 32.949 C 35.621 32.948 35.622 32.947 35.622 32.945 C 35.622 32.944 35.623 32.942 35.623 32.941 C 35.623 32.939 35.623 32.938 35.622 32.936 C 35.398 32.149 35.181 31.36 34.957 30.573 C 34.834 30.141 34.717 29.706 34.574 29.281 C 34.489 29.026 34.492 28.81 34.658 28.589 C 34.779 28.411 34.89 28.226 34.99 28.035 C 34.991 28.033 34.992 28.032 34.995 28.03 C 34.997 28.029 34.999 28.028 35.001 28.028 Z M 11.134 30.604 C 11.283 30.171 11.268 30.157 11.721 30.29 C 17.178 31.857 22.635 33.427 28.091 34.999 C 28.167 35.022 28.298 34.99 28.333 35.131 C 28.225 35.318 28.138 35.518 28.005 35.682 C 27.898 35.815 27.748 35.687 27.632 35.653 C 22.198 34.096 16.766 32.536 11.336 30.972 C 11.122 30.911 11.049 30.845 11.134 30.604 Z M 47.327 32.701 C 47.713 32.373 47.834 32.766 47.98 32.933 C 48.14 33.093 47.918 33.196 47.837 33.264 C 47.158 33.837 46.469 34.397 45.782 34.961 C 45.732 35.005 45.681 35.045 45.628 35.087 C 45.442 34.949 45.287 34.775 45.169 34.577 C 45.095 34.46 45.272 34.407 45.352 34.341 C 46.009 33.795 46.675 33.258 47.327 32.701 Z M 23.654 31.28 C 23.911 30.911 23.892 30.899 24.289 31.137 C 25.785 32.032 27.28 32.93 28.776 33.83 C 28.854 33.876 28.978 33.888 28.98 34.018 C 28.867 34.205 28.776 34.404 28.64 34.563 C 28.566 34.652 28.458 34.522 28.381 34.476 C 27.019 33.666 25.658 32.851 24.301 32.033 C 24.127 31.929 23.96 31.809 23.778 31.722 C 23.554 31.615 23.49 31.514 23.654 31.28 Z M 46.451 28.003 C 46.628 27.711 46.761 27.724 46.982 27.894 C 47.082 27.968 47.184 28.032 47.297 28.107 L 43.919 33.457 C 43.396 32.99 43.54 32.572 43.887 32.057 C 44.782 30.732 45.619 29.369 46.451 28.003 Z M 15.51 21.807 C 15.796 21.401 16.136 21.345 16.53 21.639 C 21.003 25.009 25.474 28.38 29.945 31.752 C 30.026 31.813 30.197 31.866 30.138 31.99 C 30.043 32.19 29.954 32.403 29.784 32.558 C 29.772 32.569 29.692 32.518 29.651 32.483 C 24.936 28.926 20.223 25.368 15.51 21.807 Z M 58.141 28.887 C 58.299 28.769 58.38 28.771 58.509 28.937 C 58.834 29.357 58.832 29.33 58.393 29.635 C 57.049 30.569 55.614 31.35 54.26 32.257 C 54.194 32.3 54.127 32.342 54.044 32.395 C 53.855 32.268 53.777 32.049 53.65 31.873 C 53.552 31.737 53.719 31.705 53.788 31.661 C 54.949 30.929 56.116 30.205 57.278 29.474 C 57.573 29.289 57.863 29.095 58.141 28.887 Z M 27.736 27.129 C 27.912 27.055 28.02 26.65 28.31 27.029 C 29.152 28.129 30.016 29.212 30.874 30.3 C 30.975 30.427 31.018 30.537 30.907 30.688 C 30.797 30.84 30.71 31.014 30.603 31.197 C 29.624 29.948 28.674 28.733 27.717 27.521 C 27.598 27.372 27.501 27.23 27.736 27.129 Z M 42.592 29.374 C 42.666 29.184 42.725 29.136 42.934 29.212 C 43.393 29.379 43.407 29.371 43.21 29.82 C 43.012 30.268 42.798 30.689 42.586 31.134 C 42.079 30.673 42.118 30.239 42.437 29.693 C 42.499 29.574 42.555 29.469 42.592 29.374 Z M 18.089 27.393 C 18.178 27.446 18.225 27.475 18.274 27.502 C 19.668 28.266 20.974 29.174 22.351 29.963 C 22.492 30.044 22.466 30.112 22.406 30.221 C 22.128 30.728 22.13 30.73 21.637 30.435 C 20.401 29.694 19.204 28.891 17.948 28.185 C 17.861 28.138 17.719 28.103 17.807 27.941 C 17.904 27.761 17.995 27.577 18.089 27.393 Z M 0.041 27.396 C 0.123 26.915 0.115 26.927 0.576 27.043 C 3.182 27.704 5.717 28.613 8.315 29.3 C 8.539 29.357 8.537 29.366 8.518 29.515 C 8.518 29.527 8.518 29.538 8.514 29.549 C 8.412 30.113 8.407 30.128 7.859 29.967 C 5.789 29.357 3.724 28.732 1.653 28.124 C 1.191 27.988 0.721 27.878 0.254 27.751 C 0.012 27.687 0.009 27.578 0.041 27.396 Z M 24.353 14.795 C 25.134 16.047 25.915 17.293 26.689 18.543 C 28.58 21.593 30.472 24.641 32.366 27.69 C 32.471 27.86 32.484 27.984 32.375 28.144 C 32.266 28.305 32.181 28.472 32.069 28.665 C 31.503 27.748 30.949 26.846 30.392 25.948 C 28.242 22.487 26.09 19.025 23.937 15.565 C 23.707 15.192 23.704 15.197 24.077 14.962 C 24.163 14.909 24.25 14.857 24.353 14.795 Z M 39.974 25.544 C 40.036 25.017 40.032 25.028 40.544 25.072 C 40.743 25.089 40.807 25.116 40.768 25.345 C 40.666 25.954 40.604 26.569 40.526 27.182 C 40.515 27.279 40.524 27.386 40.433 27.496 C 40.243 27.17 40.06 26.855 39.877 26.541 C 39.826 26.454 39.859 26.366 39.871 26.278 C 39.905 26.033 39.946 25.789 39.974 25.544 Z M 50.278 22.025 C 50.414 21.761 50.546 21.757 50.8 21.882 C 51.086 22.021 51.143 22.105 50.958 22.41 C 50.131 23.776 49.194 25.069 48.364 26.432 C 48.317 26.502 48.272 26.573 48.224 26.65 C 48.012 26.519 47.798 26.426 47.64 26.277 C 47.537 26.177 47.703 26.062 47.763 25.968 C 48.406 24.969 49.058 23.975 49.704 22.976 C 49.905 22.665 50.108 22.354 50.278 22.025 Z M 23.668 21.482 C 23.809 21.296 23.914 21.355 24.033 21.51 C 24.784 22.493 25.538 23.474 26.294 24.454 C 26.507 24.731 26.712 25.016 26.945 25.274 C 27.103 25.449 27.064 25.552 26.895 25.668 C 26.766 25.758 26.646 25.862 26.501 25.974 C 25.677 24.891 24.853 23.808 24.028 22.725 C 23.844 22.484 23.647 22.252 23.448 22.022 C 23.33 21.888 23.313 21.78 23.473 21.669 C 23.547 21.617 23.613 21.554 23.668 21.482 Z M 33.776 24.803 C 33.876 24.775 34.006 24.666 34.075 24.796 C 34.132 24.91 34.195 25.019 34.131 25.128 C 34.11 25.155 34.045 25.258 34.028 25.287 L 33.627 25.973 C 33.559 25.737 33.509 25.555 33.455 25.377 C 33.323 24.935 33.322 24.935 33.776 24.803 Z M 40.924 18.459 C 40.924 18.188 41.029 18.115 41.293 18.135 C 41.73 18.168 41.722 18.151 41.682 18.578 C 41.533 20.115 41.216 21.628 41.062 23.164 C 41.038 23.396 40.93 23.449 40.759 23.396 C 40.66 23.391 40.592 23.384 40.525 23.383 C 40.313 23.383 40.257 23.309 40.294 23.078 C 40.495 21.81 40.667 20.537 40.849 19.265 C 40.893 18.999 40.918 18.729 40.924 18.459 Z M 31.851 18.091 C 32.087 17.929 32.169 18.047 32.231 18.272 C 32.503 19.257 32.784 20.239 33.06 21.222 C 33.21 21.744 33.351 22.261 33.496 22.78 C 33.514 22.844 33.536 22.907 33.542 22.925 C 33.568 23.07 33.512 23.102 33.431 23.141 C 32.936 23.38 32.866 23.353 32.723 22.837 C 32.411 21.711 32.099 20.585 31.787 19.459 C 31.697 19.135 31.612 18.808 31.494 18.494 C 31.419 18.292 31.475 18.21 31.663 18.166 C 31.73 18.151 31.793 18.127 31.851 18.091 Z M 34.938 12.249 C 35.41 12.182 35.341 12.059 35.44 12.622 C 35.594 13.498 35.739 14.376 35.888 15.253 C 36.217 17.218 36.432 18.362 36.761 20.327 L 36.8 20.558 C 36.801 20.567 36.8 20.576 36.794 20.584 L 36.194 21.511 C 36.194 21.511 36.19 21.515 36.188 21.516 C 36.186 21.516 36.183 21.516 36.181 21.516 C 36.178 21.516 36.176 21.514 36.174 21.512 C 36.172 21.51 36.171 21.508 36.17 21.505 C 36.056 20.842 35.951 20.246 35.851 19.648 C 35.453 17.281 35.053 14.913 34.651 12.546 C 34.62 12.366 34.621 12.258 34.839 12.266 C 34.872 12.263 34.905 12.257 34.938 12.248 Z M 6.291 13.902 C 7.977 15.059 9.557 16.332 11.159 17.575 C 11.899 18.149 12.647 18.713 13.402 19.266 C 13.581 19.397 13.576 19.483 13.456 19.643 C 13.158 20.047 13.158 20.056 12.76 19.749 C 10.964 18.368 9.178 16.976 7.371 15.604 C 6.968 15.298 6.55 15.013 6.135 14.719 C 5.925 14.57 5.903 14.458 6.061 14.271 C 6.145 14.153 6.222 14.03 6.291 13.902 Z M 17.848 4.337 C 17.871 4.339 17.892 4.35 17.906 4.367 C 17.962 4.431 18.015 4.499 18.062 4.57 C 18.774 5.703 19.508 6.821 20.181 7.978 C 20.974 9.338 21.782 10.691 22.638 12.014 C 22.762 12.205 22.721 12.284 22.551 12.392 C 22.138 12.653 22.142 12.659 21.868 12.23 C 20.642 10.304 19.518 8.317 18.321 6.374 C 18.032 5.905 17.709 5.458 17.413 4.992 C 17.288 4.795 17.28 4.694 17.488 4.575 C 17.592 4.51 17.692 4.437 17.784 4.356 C 17.802 4.341 17.824 4.334 17.848 4.337 Z M 33.161 0.036 C 33.404 -0.086 33.392 0.13 33.423 0.281 C 33.776 2.035 34.032 3.804 34.291 5.575 C 34.446 6.632 34.627 7.687 34.795 8.743 C 34.812 8.839 34.83 8.936 34.86 9.112 C 34.895 9.269 34.706 9.227 34.592 9.255 C 34.145 9.364 34.145 9.361 34.063 8.927 C 33.661 6.803 33.41 4.656 33.063 2.523 C 32.949 1.824 32.819 1.128 32.675 0.436 C 32.579 -0.027 32.978 0.128 33.161 0.036 Z" fill="var(--1honqjd, rgb(255, 255, 255))" height="77.9999995082691px" id="HNcJOs5Eo" width="71.00000338679197px"/></svg>