<svg fill="none" height="24" viewBox="0 0 24 24" width="24" xmlns="http://www.w3.org/2000/svg"><g fill="#000"><path clip-rule="evenodd" d="m5.00006 2c-1.65685 0-3 1.34315-3 3v12.7c0 2.3748 1.92518 4.3 4.3 4.3.59371 0 1.15931-.1203 1.67376-.3379 1.54333-.6528 2.62628-2.181 2.62628-3.9621v-12.7c0-1.65685-1.34318-3-3.00004-3zm1.29981 17.5161c.69467 0 1.25781-.5631 1.25781-1.2578s-.56314-1.2578-1.25781-1.2578-1.25782.5631-1.25782 1.2578.56315 1.2578 1.25782 1.2578z" fill-rule="evenodd"/><path d="m12.1001 17.7c0 .1021.1252.1568.1974.0846l6.7315-6.7315c.781-.781.781-2.04734 0-2.82839l-3.2527-3.25269c-.7811-.78105-2.0474-.78105-2.8285 0l-.7013.70133c-.0938.09377-.1464.22094-.1464.35355z"/><path d="m10.4023 21.8012c-.0721.0721-.0223.1992.0797.1992h9.5181c1.1045 0 2-.8954 2-2v-4.6c0-1.1046-.8955-2-2-2h-.99c-.1326 0-.2598.0527-.3535.1464z"/></g></svg>