<?xml version="1.0"?>
<svg xmlns="http://www.w3.org/2000/svg" id="Line_Expand" data-name="Line Expand" viewBox="0 0 64 64" width="512" height="512"><path d="M52.6348,20.5205a7.24,7.24,0,0,1-.9405-1.7978,7.5186,7.5186,0,0,1-.0966-2.1143,6.5516,6.5516,0,0,0-.543-3.6113,6.5909,6.5909,0,0,0-2.8848-2.293,7.36,7.36,0,0,1-1.7558-1.1182A7.391,7.391,0,0,1,45.2959,7.83a6.5921,6.5921,0,0,0-2.293-2.8858,6.5608,6.5608,0,0,0-3.6093-.542,7.5234,7.5234,0,0,1-2.1153-.0966,7.2277,7.2277,0,0,1-1.7988-.94A6.6371,6.6371,0,0,0,32,2a6.6371,6.6371,0,0,0-3.48,1.3652,7.24,7.24,0,0,1-1.7978.94,7.596,7.596,0,0,1-2.1143.0966,6.558,6.558,0,0,0-3.6113.543A6.5909,6.5909,0,0,0,18.7041,7.83a7.36,7.36,0,0,1-1.1182,1.7558A7.391,7.391,0,0,1,15.83,10.7041a6.5921,6.5921,0,0,0-2.8858,2.293,6.5621,6.5621,0,0,0-.542,3.6093,7.5215,7.5215,0,0,1-.0966,2.1153,7.2277,7.2277,0,0,1-.9405,1.7988A6.6371,6.6371,0,0,0,10,24a6.6371,6.6371,0,0,0,1.3652,3.48,7.24,7.24,0,0,1,.9405,1.7978,7.5186,7.5186,0,0,1,.0966,2.1143,6.5516,6.5516,0,0,0,.543,3.6113,6.5909,6.5909,0,0,0,2.8848,2.293,7.36,7.36,0,0,1,1.7558,1.1182A7.391,7.391,0,0,1,18.7041,40.17a12.6787,12.6787,0,0,0,.9714,1.6416l-5.615,15.4268a1,1,0,0,0,1.26,1.289l5.3076-1.7929,2.9141,4.7861a1.0005,1.0005,0,0,0,.8545.48c.0322,0,.0654-.002.0986-.0049a.999.999,0,0,0,.8408-.6533l5.6366-15.4841a3.7808,3.7808,0,0,0,2.055,0l5.6366,15.4841a.999.999,0,0,0,.8408.6533c.0332.0029.0664.0049.0986.0049a1.0005,1.0005,0,0,0,.8545-.48l2.9141-4.7861L48.68,58.5273a1,1,0,0,0,1.26-1.289L44.3246,41.8108a12.7507,12.7507,0,0,0,.9713-1.6409,7.36,7.36,0,0,1,1.1182-1.7558A7.391,7.391,0,0,1,48.17,37.2959a6.5921,6.5921,0,0,0,2.8858-2.293,6.5621,6.5621,0,0,0,.542-3.6093,7.5215,7.5215,0,0,1,.0966-2.1153,7.2277,7.2277,0,0,1,.9405-1.7988A6.6371,6.6371,0,0,0,54,24,6.6371,6.6371,0,0,0,52.6348,20.5205ZM24.1689,58.7031l-2.248-3.6924a1,1,0,0,0-1.1748-.4267l-4.0947,1.3828,4.6454-12.7637a7.2033,7.2033,0,0,0,3.31.3946,7.563,7.563,0,0,1,2.1153.0966,7.2277,7.2277,0,0,1,1.7988.9405c.2029.1291.4129.261.6273.39Zm19.085-4.1191a1,1,0,0,0-1.1748.4267l-2.248,3.6924L34.8522,45.0253c.2144-.13.4244-.2614.6273-.3905a7.24,7.24,0,0,1,1.7978-.9405,7.5541,7.5541,0,0,1,2.1143-.0966,7.1864,7.1864,0,0,0,3.3116-.3955l4.6454,12.7646Zm7.6934-28.1787a8.7219,8.7219,0,0,0-1.1846,2.3564,9.05,9.05,0,0,0-.1641,2.7119,5.0357,5.0357,0,0,1-.2744,2.5284,5.062,5.062,0,0,1-2.0791,1.5214A8.87,8.87,0,0,0,45,37a8.8441,8.8441,0,0,0-1.4775,2.2451,5.0621,5.0621,0,0,1-1.5215,2.0791,5.0526,5.0526,0,0,1-2.5283.2744,9.085,9.085,0,0,0-2.712.1641,8.7305,8.7305,0,0,0-2.3554,1.1846A5.0786,5.0786,0,0,1,32,44a5.0786,5.0786,0,0,1-2.4053-1.0527,8.7219,8.7219,0,0,0-2.3564-1.1846,6.6122,6.6122,0,0,0-1.7158-.19c-.334,0-.667.0136-.9961.0263a5.0471,5.0471,0,0,1-2.5284-.2744,5.062,5.062,0,0,1-1.5214-2.0791A8.87,8.87,0,0,0,19,37a8.8441,8.8441,0,0,0-2.2451-1.4775,5.0621,5.0621,0,0,1-2.0791-1.5215,5.037,5.037,0,0,1-.2744-2.5283,9.0522,9.0522,0,0,0-.1641-2.712,8.7305,8.7305,0,0,0-1.1846-2.3554A5.0786,5.0786,0,0,1,12,24a5.0786,5.0786,0,0,1,1.0527-2.4053,8.7219,8.7219,0,0,0,1.1846-2.3564,9.05,9.05,0,0,0,.1641-2.7119,5.0357,5.0357,0,0,1,.2744-2.5284,5.062,5.062,0,0,1,2.0791-1.5214A8.87,8.87,0,0,0,19,11a8.8441,8.8441,0,0,0,1.4775-2.2451A5.0621,5.0621,0,0,1,21.999,6.6758a5.0411,5.0411,0,0,1,2.5283-.2744,9.087,9.087,0,0,0,2.712-.1641,8.7305,8.7305,0,0,0,2.3554-1.1846A5.0786,5.0786,0,0,1,32,4a5.0786,5.0786,0,0,1,2.4053,1.0527,8.7219,8.7219,0,0,0,2.3564,1.1846,9.0863,9.0863,0,0,0,2.7119.1641,5.037,5.037,0,0,1,2.5284.2744,5.062,5.062,0,0,1,1.5214,2.0791A8.87,8.87,0,0,0,45,11a8.8441,8.8441,0,0,0,2.2451,1.4775,5.0621,5.0621,0,0,1,2.0791,1.5215,5.037,5.037,0,0,1,.2744,2.5283,9.0522,9.0522,0,0,0,.1641,2.712,8.7305,8.7305,0,0,0,1.1846,2.3554A5.0786,5.0786,0,0,1,52,24,5.0786,5.0786,0,0,1,50.9473,26.4053Z"/><path d="M32,8A16,16,0,1,0,48,24,16.0183,16.0183,0,0,0,32,8Zm0,30A14,14,0,1,1,46,24,14.0158,14.0158,0,0,1,32,38Z"/><path d="M35.5879,19.0107l-2.6914-5.4531a1.04,1.04,0,0,0-1.793,0l-2.6914,5.4531-6.0185.875a1,1,0,0,0-.5547,1.7051l4.3554,4.2451L25.166,31.8311a1,1,0,0,0,1.4512,1.0537L32,30.0547l5.3828,2.83a1,1,0,0,0,1.4512-1.0537l-1.0283-5.9952,4.3554-4.2451a1,1,0,0,0-.5547-1.7051Zm.4453,5.7608a1,1,0,0,0-.2871.8847l.7744,4.5157L32.4658,28.04a.9993.9993,0,0,0-.9316,0L27.48,30.1719l.7744-4.5157a1,1,0,0,0-.2871-.8847l-3.2813-3.1983,4.5342-.6591a.9986.9986,0,0,0,.753-.5469L32,16.26l2.0273,4.1074a.9986.9986,0,0,0,.753.5469l4.5342.6591Z"/></svg>
