<?xml version="1.0" encoding="iso-8859-1"?>
<!-- Generator: Adobe Illustrator 19.0.0, SVG Export Plug-In . SVG Version: 6.00 Build 0)  -->
<svg version="1.1" id="Capa_1" xmlns="http://www.w3.org/2000/svg" xmlns:xlink="http://www.w3.org/1999/xlink" x="0px" y="0px"
	 viewBox="0 0 512 512" style="enable-background:new 0 0 512 512;" xml:space="preserve">
<g>
	<g>
		<path d="M418.203,366.793c-4.819-24.142-22.392-34.034-32.436-37.783c-0.165-0.06-0.331-0.116-0.5-0.166
			c-1.947-0.574-56.794-16.752-63.253-18.657l-19.724-13.338v-12.318c31.807-16.629,53.296-49.923,53.296-88.169v-1.385
			c16.327-3.017,28.616-15.669,28.616-30.778c0-8.204-3.627-15.683-9.553-21.289V78.208c0-35.92-32.518-63.402-68.113-57.113
			C258.184-15.147,188.617-3.684,154.88,47.743c-2.272,3.465-1.306,8.115,2.158,10.389c3.464,2.272,8.114,1.305,10.389-2.158
			c16.828-25.655,45.162-40.97,75.79-40.97c20.885,0,40.51,6.912,56.754,19.987c1.816,1.462,4.212,1.997,6.476,1.446
			c27.213-6.613,53.2,14.078,53.2,41.771v56.189c-1.501-0.443-3.045-0.806-4.627-1.075c-1.121-4.945-4.053-9.231-6.262-10.956
			l-31.189-24.283c-7.676-5.975-17.573-6.848-24.162-3.853c-75.566,29.211-120.855,29.211-123.103,29.533
			c-5.641,0.54-11.2,3.869-12.996,9.552c-1.596,0.27-3.155,0.634-4.669,1.081c0.418-24.19-1.199-33.424,2.163-48.553
			c0.898-4.044-1.65-8.052-5.695-8.95c-4.045-0.901-8.053,1.65-8.95,5.695c-3.951,17.779-2.007,28.31-2.521,60.319
			c-5.925,5.606-9.551,13.084-9.551,21.288c0,15.109,12.289,27.761,28.615,30.778v0.078c0,36.642,20.083,71.261,53.028,89.042
			v12.869l-19.418,13.131c-1.534,0.453-63.58,18.739-64.06,18.915c-10.045,3.748-27.616,13.641-32.437,37.786L71.951,476.572
			c-0.027,0.136-0.051,0.272-0.07,0.409C68.989,497.375,79.932,512,102.294,512h79.922c4.144,0,7.502-3.358,7.502-7.502
			s-3.358-7.502-7.502-7.502h-27.03v-70.707c0-4.144-3.358-7.502-7.502-7.502c-4.144,0-7.502,3.358-7.502,7.502v70.707h-37.89
			c-10.237,0-15.769-3.44-15.847-13.677c-0.042-5.103-0.265-0.021,22.076-113.589c3.359-16.824,15.576-23.852,22.733-26.573
			c2.554-0.753,56.346-16.621,57.46-16.949l13.753,38.542c2.7,7.563,10.392,11.146,17.275,9.716l23.541,20.653
			c7.22,6.336,18.161,6.389,25.445,0.031l23.697-20.687c7.074,1.473,14.65-2.316,17.289-9.714l13.737-38.495
			c7.056,2.081,41.878,12.353,57.305,16.903c7.156,2.722,19.373,9.748,22.732,26.57c22.716,115.472,22.28,108.913,22.059,114.381
			c-0.359,9.033-5.093,12.887-15.828,12.887h-37.621v-70.706c0-4.144-3.358-7.502-7.502-7.502s-7.502,3.358-7.502,7.502v70.707
			H217.226c-4.144,0-7.502,3.358-7.502,7.502c0,4.144,3.358,7.502,7.502,7.502H409.72c18.533,0,30.681-10.197,30.851-28.565
			C440.592,480.52,441.168,483.445,418.203,366.793z M355.586,148.812c18.162,5.398,18.074,25.403,0,30.774V148.812z
			 M156.697,179.586c-18.109-5.382-18.124-25.386,0-30.774V179.586z M171.701,195.054c0-6.718,0-49.168,0-56.334
			c0.1-0.018,54.944-1.625,127.134-30.501l0.581-0.226c1.456-0.473,5.011-1.124,8.935,1.93l30.755,23.945
			c2.131,2.605,1.477,0.824,1.477,62.494c0,33.362-19.265,62.267-47.489,75.97c-1.807,0.343-31.623,16.087-66.435,3.058
			C193.873,262.9,171.701,230.656,171.701,195.054z M287.286,290.858v8.468l-19.134,45.729l-24.054,0.001
			c-4.687-11.158-20.363-48.49-19.37-46.138v-8.275C245.435,297.655,267.538,297.328,287.286,290.858z M216.713,359.774
			c-0.21-0.01,0.492,1.429-14.281-39.766l11.58-7.83c4.149,9.918,13.851,33.104,15.838,37.854L216.713,359.774z M258.863,383.847
			c-1.62,1.416-4.065,1.414-5.682-0.006l-20.014-17.558l8.437-6.225h29.064l8.35,6.195L258.863,383.847z M295.571,359.743
			c-0.134,0.134,0.103,0.106-13.235-9.711c5.905-14.114,12.642-30.216,15.838-37.854l11.579,7.83L295.571,359.743z"/>
	</g>
</g>
<g>
</g>
<g>
</g>
<g>
</g>
<g>
</g>
<g>
</g>
<g>
</g>
<g>
</g>
<g>
</g>
<g>
</g>
<g>
</g>
<g>
</g>
<g>
</g>
<g>
</g>
<g>
</g>
<g>
</g>
</svg>
