<svg width="151" height="68" viewBox="0 0 151 68" fill="none" xmlns="http://www.w3.org/2000/svg">
<path d="M7.62943 14.9024L7.83406 14.8623C8.19981 14.8494 8.39879 14.9357 8.43099 15.121C8.62097 19.4538 8.87842 28.1572 9.20325 41.2313C17.0057 32.848 23.5979 26.257 28.9799 21.4586C29.8682 20.6367 30.4501 20.2115 30.7256 20.1828C31.0373 20.1379 31.267 20.2147 31.4145 20.4132L31.445 20.5233C31.4712 20.7721 31.003 21.2548 30.0402 21.9712C26.2159 25.4505 21.9493 29.5983 17.2402 34.4149C14.5302 37.1746 11.864 40.0492 9.24149 43.0388L9.60232 51.3416C11.9366 51.3884 16.8666 51.3795 24.3924 51.3146C29.1888 51.4202 32.6335 51.5529 34.7266 51.7129L34.7928 51.8004L34.8292 51.9664C34.7275 52.2034 34.5765 52.3323 34.3762 52.3531L34.2823 52.3629C27.9252 52.105 19.825 52.003 9.98146 52.0569C9.97752 52.0196 9.8678 51.9996 9.65223 51.9968L9.65819 52.0528C10.0451 58.3778 10.3914 62.6315 10.697 64.8137C10.7592 65.2853 10.9149 66.0428 11.1639 67.0861C10.9832 67.2936 10.8184 67.4113 10.6694 67.4394L10.3876 67.4687C10.1009 67.5111 9.84935 66.7447 9.63297 65.1696C9.30516 62.7757 8.94387 58.379 8.54904 51.9793C5.51231 51.7539 3.91952 51.1143 3.77067 50.0605L3.74907 49.8551C3.55888 48.5289 4.99866 46.0899 8.06837 42.5381C7.64297 33.8018 7.24309 24.7671 6.8688 15.4343C7.03906 15.1273 7.29259 14.95 7.62943 14.9024ZM5.24002 49.5871C5.36064 50.4928 6.46447 51.0574 8.5515 51.2809L8.54562 51.2249C8.50166 50.9275 8.36784 48.6331 8.14424 44.3416C6.07307 46.7959 5.105 48.5444 5.24002 49.5871ZM31.4089 39.6793L31.6343 39.6559C32.035 39.6143 32.3931 39.8286 32.7084 40.2991C32.9893 40.0812 33.2174 39.9631 33.3927 39.945L33.4303 39.941C33.6182 39.9215 33.7878 40.0297 33.9392 40.2656C33.5971 43.0308 33.4752 44.8801 33.5734 45.8134L33.6068 46.1307C33.6147 46.2053 33.6093 46.2751 33.5909 46.3399C33.7466 46.9779 33.9059 47.2884 34.0686 47.2715L34.1626 47.2617C34.7816 47.0088 35.7885 45.6902 37.1835 43.3062C37.8501 41.9412 38.3024 41.2463 38.5403 41.2217L38.7281 41.2021C38.891 41.1852 39.004 41.2364 39.0671 41.3556L39.0809 41.4863C36.8504 45.5547 35.1511 47.6936 33.9832 47.903L33.7014 47.9323C33.188 47.9857 32.8551 47.5296 32.7029 46.5642L32.6112 46.2341C32.5301 45.4626 32.5828 44.0986 32.7694 42.142L32.6754 42.1517C32.28 43.0859 31.5183 44.2091 30.3904 45.5213C29.6578 46.1384 29.0911 46.4677 28.6904 46.5093C28.144 46.4906 27.8499 46.2822 27.808 45.884L27.7589 45.4173C27.7254 44.3767 28.2022 43.0126 29.1893 41.3251C29.9803 40.2994 30.7201 39.7509 31.4089 39.6793ZM29.242 45.0746L29.3418 45.1208L29.3982 45.115C30.0736 44.3152 30.8132 43.1628 31.617 41.6578C31.8361 41.3332 31.9443 41.1584 31.9417 41.1335C31.8039 41.1478 31.6155 41.0416 31.3764 40.8148C31.0383 40.8499 30.5207 41.6459 29.8237 43.2028C29.4084 44.1893 29.2145 44.8132 29.242 45.0746ZM39.1677 28.0611L39.8064 27.9948C39.9066 27.9844 40.0242 28.0791 40.1591 28.279C39.9564 29.7215 39.8984 30.8534 39.9847 31.6747L40.0787 31.6649C46.8053 31.1045 50.9826 30.7398 52.6105 30.5706L52.7449 30.7642L52.7566 30.8762C52.7037 31.0956 52.502 31.2234 52.1514 31.2599L39.9604 32.5263C40.02 38.508 40.4414 45.2194 41.2243 52.6607L41.4108 54.4338C41.4213 54.5334 41.326 54.6502 41.1249 54.7843L40.7117 54.8273L40.4932 54.7367C40.2322 52.9775 40.0591 51.6935 39.974 50.8847L39.8758 49.9515C39.0995 42.5724 38.6706 36.8116 38.5891 32.6688C34.9766 33.107 32.1546 33.5385 30.1231 33.9634C29.7633 33.9127 29.5769 33.8252 29.5638 33.7007L29.5421 33.4955C29.4911 33.0101 32.5149 32.4507 38.6135 31.8171L38.6017 31.7051C38.3948 29.739 38.5835 28.5244 39.1677 28.0611ZM46.5813 37.7069L47.0134 37.662C47.4642 37.6151 47.7939 37.9206 48.0023 38.5782C48.1031 39.5363 47.5278 40.4452 46.2763 41.3048C46.0264 41.4566 45.5699 41.6298 44.9067 41.8245C44.6246 42.8727 44.5018 43.5711 44.5385 43.9195L44.5738 44.2555C44.6367 44.8528 45.0642 45.1858 45.8563 45.2544C46.8205 45.1542 48.2179 43.9964 50.0483 41.781C50.4843 41.2325 50.9287 40.5825 51.3813 39.8311L51.6314 39.8617C51.771 39.9855 51.8286 40.1116 51.8041 40.2399L51.814 40.3333C51.5694 41.3776 50.412 42.8313 48.342 44.6942C47.3081 45.4558 46.4718 45.8698 45.8331 45.9361L45.5325 45.9673C44.5683 46.0675 43.8638 45.5683 43.419 44.4698C43.3697 44.3617 43.3359 44.2205 43.3175 44.0463L43.2763 43.6544C43.1244 42.2109 43.7801 40.5012 45.2432 38.5252C45.8347 38.0109 46.2808 37.7381 46.5813 37.7069ZM45.3732 40.6627L45.4107 40.6589C45.9032 40.4064 46.2416 40.0127 46.4259 39.4778C46.4912 39.2572 46.5168 39.0785 46.5024 38.9416C46.1727 39.1771 45.8732 39.5793 45.6039 40.1482C45.4461 40.4539 45.3692 40.6254 45.3732 40.6627ZM78.7254 6.98826L78.8943 6.9707C80.3247 7.08631 81.3475 10.0683 81.9626 15.9168C82.0988 16.6071 82.1687 16.9709 82.1724 17.0083C82.5361 20.4675 83.01 27.6767 83.5931 38.6358L86.1289 38.3724C86.204 38.3645 86.2948 38.4432 86.4011 38.6083L86.4182 38.7763C86.3669 39.008 86.1282 39.1461 85.7027 39.1903L83.6735 39.401C83.974 45.0181 84.2782 49.295 84.5869 52.2317C84.9172 55.3674 85.3501 57.5615 85.8871 58.814C85.6729 59.0627 85.4029 59.204 85.0771 59.2378C84.514 59.2964 83.9993 57.1107 83.5329 52.6808L83.5247 52.6061C83.2316 49.8188 82.8895 45.483 82.4982 39.5987L82.4045 39.6084C80.8015 39.775 77.3902 40.4438 72.1712 41.6149C71.547 45.4285 70.624 51.877 69.4023 60.9606L68.9304 61.3492L68.1791 61.4273C68.0637 61.4141 67.936 61.2827 67.7958 61.0331C68.2643 57.4244 69.1651 51.0663 70.4982 41.9586C67.71 42.6508 65.4069 43.2611 63.5888 43.7896L63.3259 43.817C63.2382 43.8261 63.1137 43.7258 62.9524 43.5161L62.9347 43.3481C62.8837 42.8628 65.4789 42.0209 70.7205 40.8222C71.8101 33.2493 73.2267 24.9947 74.9705 16.0583C76.3466 10.1287 77.5985 7.10535 78.7254 6.98826ZM72.3093 40.5816C72.4155 40.5077 72.4998 40.4675 72.5625 40.461C77.1552 39.5939 80.466 39.055 82.4945 38.8442L82.4848 38.7509C81.9671 28.8921 81.4717 21.7167 80.9986 17.2245L80.8729 16.03C80.3306 10.8784 79.6656 8.34351 78.8764 8.42548C77.9251 8.52438 76.3801 15.3205 74.2424 28.8139C73.4961 33.0302 72.8517 36.9527 72.3093 40.5816ZM88.0041 22.9878L88.6423 22.9215C88.7428 22.9111 88.8603 23.0058 88.9949 23.2057C88.7926 24.6481 88.7346 25.78 88.8209 26.6014L88.9146 26.5916C95.6411 26.0312 99.8186 25.6664 101.447 25.4972L101.581 25.6909L101.593 25.8029C101.54 26.0223 101.338 26.1501 100.987 26.1866L88.7963 27.453C88.8558 33.4346 89.2776 40.1461 90.0601 47.5873L90.2468 49.3605C90.2572 49.46 90.162 49.5769 89.9612 49.7109L89.5476 49.7539L89.3289 49.6633C89.0686 47.9042 88.8952 46.6202 88.8097 45.8114L88.7115 44.8781C87.9357 37.4991 87.5065 31.7382 87.4254 27.5954C83.8126 28.0337 80.9904 28.4652 78.959 28.8901C78.599 28.8394 78.413 28.7519 78.3996 28.6274L78.3781 28.4221C78.3275 27.9368 81.3512 27.3774 87.4492 26.7438L87.4381 26.6318C87.2305 24.6657 87.4195 23.4511 88.0041 22.9878ZM93.844 19.3054L94.1445 19.2742C94.3201 19.256 94.48 19.3337 94.6251 19.5073L94.6325 19.582C94.2844 21.6813 93.995 24.7682 93.7652 28.8426C93.6819 31.5433 93.6752 33.7642 93.7443 35.5056C95.5995 33.1618 96.7606 31.9216 97.227 31.7851L97.4524 31.7617C97.8027 31.7252 97.9932 31.8439 98.0214 32.1176C98.0333 32.2297 97.5126 32.8183 96.4601 33.8837C94.7366 35.7862 93.8619 37.0407 93.8373 37.6471L93.9154 38.3937C93.9288 38.5181 94.2323 38.5747 94.8259 38.5633C96.266 38.4137 98.2677 37.4636 100.831 35.7129C101.413 35.1115 101.773 34.8036 101.911 34.7894C102.153 34.8019 102.278 34.8518 102.287 34.9389L102.301 35.0696C101.63 35.9067 100.585 36.6882 99.1677 37.4141C97.1876 38.4501 95.5839 39.0318 94.3573 39.1593L93.9437 39.2021L94.0694 40.3967C94.0716 40.4216 94.0605 40.4354 94.0359 40.438L94.0828 40.5274L94.1892 41.5353C94.2256 41.8838 94.3022 42.4293 94.4183 43.172C94.2836 43.337 94.1602 43.4252 94.0471 43.437L93.7659 43.4663C93.5904 43.4844 93.4282 42.7843 93.2787 41.3657C93.179 40.42 93.0861 39.656 92.9998 39.0738C92.6821 38.9433 92.5081 38.7349 92.4783 38.4487L92.4508 38.1874C92.4605 37.7965 92.5847 37.4124 92.8235 37.0354C92.5148 33.9854 92.4672 29.8014 92.6799 24.4833C92.8733 22.1108 93.066 20.5121 93.2579 19.6871C93.4862 19.4495 93.6811 19.3223 93.844 19.3054ZM102.896 32.0642L103.215 32.031C103.415 32.0102 103.576 32.0879 103.695 32.2642L103.701 32.3202C103.472 34.7215 103.403 36.3452 103.492 37.1913L103.533 37.5833C103.585 38.0685 103.742 38.3604 104.005 38.4589C104.732 38.3834 105.995 36.9753 107.796 34.2347L108.071 34.1494L108.278 34.1279C108.328 34.1227 108.39 34.1729 108.464 34.2783C108.503 34.6392 107.555 35.9201 105.622 38.1211C104.983 38.6655 104.5 38.9546 104.174 38.9884L103.799 39.0275C103.236 39.086 102.774 38.549 102.415 37.4165C102.353 37.1964 102.308 36.9495 102.279 36.6757L102.211 36.0224C102.061 33.522 102.168 32.253 102.531 32.2152L102.896 32.0642ZM102.351 30.498C102.43 30.7666 102.657 30.8814 103.033 30.8423L103.202 30.8248C103.415 30.8027 103.608 30.5938 103.782 30.1984C103.813 30.1323 103.824 30.0619 103.817 29.9872L103.789 29.726C103.788 29.7135 103.8 29.706 103.825 29.7034L103.781 29.6513L103.779 29.6326C103.758 29.4336 103.666 29.2733 103.501 29.1521L102.978 29.0554C102.424 29.2011 102.194 29.6024 102.288 30.2592L102.351 30.498ZM109.491 30.511L109.661 30.4934C109.94 30.5021 110.088 30.5873 110.105 30.7491C110.005 33.8918 109.985 35.806 110.045 36.4917L110.047 36.5104L110.084 36.5065C111.434 33.5736 112.517 32.0711 113.332 31.9989C113.96 31.9463 114.393 32.6939 114.631 34.2415C114.73 35.4138 114.96 36.2201 115.322 36.6604C115.431 36.7246 115.535 36.7516 115.635 36.7412L115.71 36.7334C116.325 36.6821 117.642 35.4761 119.659 33.1154C119.652 33.0532 119.804 32.9871 120.113 32.9172C120.263 32.9016 120.389 32.9515 120.49 33.0668L120.487 33.2181C119.917 33.944 119.193 34.7552 118.312 35.6517C117.076 36.7739 116.131 37.3627 115.479 37.4179C114.662 37.4775 114.138 36.9533 113.908 35.8451C113.659 34.3236 113.484 33.5681 113.385 33.5785C113.377 33.5039 113.289 33.4501 113.121 33.4173C112.657 33.4654 111.878 34.9049 110.784 37.7358C110.4 38.6687 110.122 39.1443 109.946 39.1625C109.852 39.2227 109.735 39.2599 109.597 39.2743L109.39 39.2957C109.056 39.2424 108.873 39.016 108.844 38.6165L108.787 38.0753C108.675 36.5271 108.684 34.1423 108.813 30.9211C108.989 30.6638 109.215 30.5272 109.491 30.511ZM123.046 28.3104L123.403 28.2733C123.746 28.288 123.928 28.3949 123.949 28.5939C123.976 28.8428 123.586 29.1098 122.78 29.3947C122.059 30.1237 121.74 30.8802 121.822 31.6641C121.888 32.2863 122.584 33.126 123.911 34.1833C124.294 34.6969 124.493 35.0285 124.509 35.1778L124.565 35.172C126.566 33.0142 127.724 31.9191 128.036 31.8866L128.356 31.8534C128.419 31.8469 128.488 31.9026 128.564 32.0205L128.577 32.1512L124.913 35.9472C124.735 36.0663 124.612 36.5131 124.541 37.2878C124.238 38.2627 123.657 39.2351 122.797 40.205C122.202 40.8077 121.711 41.1293 121.322 41.1695L121.135 41.1891C120.909 41.2125 120.736 41.1299 120.615 40.9412L120.595 40.7545C120.529 40.1199 121.534 38.6065 123.612 36.2145L123.584 35.9531C123.514 35.2812 122.721 34.4954 121.209 33.5959C120.705 33.1325 120.426 32.6458 120.372 32.1356L120.358 32.0049C120.221 30.6984 120.892 29.5532 122.37 28.5692C122.646 28.4149 122.87 28.3286 123.046 28.3104ZM121.614 40.328L121.62 40.3839C122.533 39.3204 123.093 38.5012 123.298 37.9264L123.241 37.9322C122.399 38.9507 121.856 39.7492 121.614 40.328ZM130.396 29.0563L130.678 29.027C130.954 28.9984 131.194 29.1119 131.398 29.3674L131.412 29.4981C131.286 29.7501 131.035 29.8957 130.66 29.9347C130.085 30.963 129.789 32.1321 129.775 33.4419C129.765 33.5813 129.769 33.7382 129.787 33.9124L129.834 34.3604C129.918 35.1568 130.17 35.6275 130.591 35.7725L130.609 35.7706C131.16 35.7133 131.421 34.6359 131.389 32.5383L131.301 31.6984C130.757 31.3398 130.471 31.0236 130.442 30.7498L130.43 30.6378C130.399 30.3392 130.626 30.0955 131.113 29.9065L131.206 29.8968C131.683 29.8473 132.006 30.2791 132.179 31.1921C132.374 31.3606 132.872 31.466 133.674 31.5085L134.406 31.4324C134.945 31.3764 135.461 31.2223 135.953 30.9698L136.158 30.9297C136.366 30.9835 136.455 31.1126 136.426 31.3169L136.288 31.4445C136.126 31.5872 135.792 31.7287 135.288 31.8691C134.831 31.9795 134.453 32.0503 134.152 32.0815L133.814 32.1166C133.326 32.1674 132.822 32.1379 132.304 32.0281L132.308 32.0655C132.525 34.1187 132.006 35.5689 130.753 36.4161C130.559 36.4991 130.393 36.5477 130.256 36.562L130.068 36.5815C129.267 36.6648 128.699 36.0823 128.365 34.8338L128.3 34.2179C128.166 32.9486 128.416 31.5955 129.05 30.1585C129.472 29.4731 129.92 29.1058 130.396 29.0563ZM137.421 27.6095L137.591 27.5919C137.87 27.6006 138.019 27.6859 138.036 27.8476C137.935 30.9903 137.915 32.9044 137.975 33.5901L137.977 33.6088L138.014 33.6049C139.364 30.672 140.446 29.1695 141.262 29.0974C141.89 29.0449 142.322 29.7923 142.561 31.34C142.659 32.5123 142.89 33.3186 143.253 33.7589C143.361 33.8232 143.465 33.8501 143.565 33.8397L143.641 33.8319C144.255 33.7805 145.572 32.5746 147.589 30.2139C147.583 30.1516 147.734 30.0856 148.043 30.0158C148.194 30.0001 148.319 30.05 148.42 30.1653L148.417 30.3166C147.847 31.0424 147.122 31.8536 146.242 32.7502C145.005 33.8725 144.061 34.4612 143.408 34.5163C142.592 34.5761 142.068 34.0518 141.837 32.9435C141.589 31.4221 141.414 30.6666 141.315 30.677C141.306 30.6023 141.219 30.5486 141.05 30.5157C140.587 30.5638 139.808 32.0034 138.713 34.8343C138.33 35.7672 138.051 36.2428 137.876 36.261C137.781 36.3211 137.665 36.3584 137.527 36.3727L137.32 36.3942C136.985 36.3409 136.804 36.1146 136.774 35.7151L136.718 35.1737C136.605 33.6255 136.613 31.2408 136.743 28.0196C136.918 27.7624 137.145 27.6256 137.421 27.6095Z" fill="#573CFF"/>
</svg>
