<svg width="133" height="55" viewBox="0 0 133 55" fill="none" xmlns="http://www.w3.org/2000/svg">
<g clip-path="url(#clip0_1056_440)">
<mask id="mask0_1056_440" style="mask-type:luminance" maskUnits="userSpaceOnUse" x="0" y="0" width="133" height="55">
<path d="M133 55H0V0H133V55Z" fill="white"/>
</mask>
<g mask="url(#mask0_1056_440)">
<g opacity="0.7">
<path d="M0.314453 47.3382C0.314453 47.3382 14.0713 54.8081 29.0784 47.3382C44.0854 39.8684 45.3376 58.1565 58.1553 52.4894C70.9729 46.8223 71.2862 41.4141 83.168 48.883C95.0498 56.3519 96.9251 54.0343 108.494 47.3373C120.062 40.6404 132.568 52.4885 132.568 52.4885" stroke="#573CFF" stroke-width="2" stroke-linecap="round"/>
<path d="M0.314453 33.2171C0.314453 33.2171 14.0713 40.687 29.0784 33.2171C44.0854 25.7473 45.3376 44.0354 58.1553 38.3683C70.9729 32.7013 71.2862 27.293 83.168 34.7619C95.0498 42.2308 96.9251 39.9132 108.494 33.2162C120.062 26.5193 132.568 38.3674 132.568 38.3674" stroke="#573CFF" stroke-width="2" stroke-linecap="round"/>
<path d="M0.314453 19.097C0.314453 19.097 14.0713 26.5669 29.0784 19.097C44.0854 11.6272 45.3376 29.9153 58.1553 24.2482C70.9729 18.5811 71.2862 13.1729 83.168 20.6418C95.0498 28.1107 96.9251 25.7931 108.494 19.0961C120.062 12.3991 132.568 24.2473 132.568 24.2473" stroke="#573CFF" stroke-width="2" stroke-linecap="round"/>
<path d="M0.314453 4.97593C0.314453 4.97593 14.0713 12.4458 29.0784 4.97593C44.0854 -2.4939 45.3376 15.7942 58.1553 10.1271C70.9729 4.46004 71.2862 -0.94817 83.168 6.52072C95.0498 13.9896 96.9251 11.672 108.494 4.97501C120.062 -1.72195 132.568 10.1262 132.568 10.1262" stroke="#573CFF" stroke-width="2" stroke-linecap="round"/>
</g>
</g>
</g>
<defs>
<clipPath id="clip0_1056_440">
<rect width="133" height="55" fill="white" transform="matrix(1 0 0 -1 0 55)"/>
</clipPath>
</defs>
</svg>
