<svg width="309" height="227" viewBox="0 0 309 227" fill="none" xmlns="http://www.w3.org/2000/svg">
<path d="M90.4338 116.349L73.7534 125.993" stroke="#573CFF" stroke-width="2" stroke-miterlimit="10" stroke-linecap="round"/>
<path d="M73.1865 125.964L27.0879 121.65L66.1179 134.324" stroke="#573CFF" stroke-width="2" stroke-miterlimit="10" stroke-linecap="round"/>
<path d="M90.4641 114.321C64.1521 115.096 37.8607 116.383 11.5898 118.18" stroke="#573CFF" stroke-width="2" stroke-miterlimit="10" stroke-linecap="round"/>
<path d="M66.3524 134.903C59.5189 136.985 52.7635 139.305 46.0863 141.86" stroke="#573CFF" stroke-width="2" stroke-miterlimit="10" stroke-linecap="round"/>
<path d="M10.1299 118.829C22.5846 127.592 35.5312 135.634 48.9061 142.916" stroke="#573CFF" stroke-width="2" stroke-miterlimit="10" stroke-linecap="round"/>
<path d="M75.4812 126.804C76.9871 133.191 78.8763 139.482 81.1384 145.643" stroke="#573CFF" stroke-width="2" stroke-miterlimit="10" stroke-linecap="round"/>
<path d="M67.0098 134.113C71.5195 138.131 76.0297 142.149 80.5403 146.167" stroke="#573CFF" stroke-width="2" stroke-miterlimit="10" stroke-linecap="round"/>
<path d="M80.1285 146.24C73.0196 143.003 65.7785 140.08 58.4053 137.473" stroke="#573CFF" stroke-width="2" stroke-miterlimit="10" stroke-linecap="round"/>
<path d="M86.8888 133.112C99.0802 138.603 101.255 150.687 106.806 160.463C115.607 175.965 136.713 187.106 162.814 184.325C183.663 182.103 204.912 171.165 218.406 157.504C231.901 143.842 238.095 127.864 238.11 113.32C238.115 107.137 237.045 101.081 233.779 95.938C226.346 84.2293 208.15 78.5548 188.706 78.1042C184.2 77.8519 179.683 78.337 175.333 79.5405C170.872 80.9263 166.544 83.8049 165.378 87.0603C164.03 90.8131 167.311 93.946 171.831 94.9224C176.352 95.8987 181.804 95.1705 187.034 94.1765C215.289 88.8169 244.421 74.669 259.737 55.3553C275.053 36.0416 273.038 12.1667 251.754 3.28484" stroke="#573CFF" stroke-width="2" stroke-miterlimit="10" stroke-linecap="round" stroke-dasharray="9.74 9.74"/>
</svg>
