<svg width="257" height="209" viewBox="0 0 257 209" fill="none" xmlns="http://www.w3.org/2000/svg">
<g clip-path="url(#clip0_839_416)">
<path d="M77.458 114.069L65.0691 123.683" stroke="#007A70" stroke-width="2" stroke-miterlimit="10" stroke-linecap="round"/>
<path d="M64.6093 123.723L26.96 125.321L59.8298 131.242" stroke="#007A70" stroke-width="2" stroke-miterlimit="10" stroke-linecap="round"/>
<path d="M77.2596 112.431C56.1269 115.954 35.0671 119.887 14.0801 124.23" stroke="#007A70" stroke-width="2" stroke-miterlimit="10" stroke-linecap="round"/>
<path d="M60.0826 131.683C54.8014 134.116 49.6093 136.73 44.5062 139.526" stroke="#007A70" stroke-width="2" stroke-miterlimit="10" stroke-linecap="round"/>
<path d="M12.9736 124.914C23.9823 130.609 35.3083 135.668 46.8958 140.067" stroke="#007A70" stroke-width="2" stroke-miterlimit="10" stroke-linecap="round"/>
<path d="M66.5522 124.147C68.4701 129.132 70.6864 133.997 73.1891 138.716" stroke="#007A70" stroke-width="2" stroke-miterlimit="10" stroke-linecap="round"/>
<path d="M60.5264 130.975C64.6056 133.718 68.6851 136.461 72.7651 139.204" stroke="#007A70" stroke-width="2" stroke-miterlimit="10" stroke-linecap="round"/>
<path d="M72.4404 139.309C66.3511 137.481 60.19 135.922 53.957 134.632" stroke="#007A70" stroke-width="2" stroke-miterlimit="10" stroke-linecap="round"/>
<path d="M76.4462 127.977C86.8822 131.063 89.9668 140.568 95.5196 147.84C104.325 159.371 122.572 166.031 143.314 160.914C159.881 156.825 175.812 145.665 185.189 133.162C194.566 120.659 197.801 107.092 196.212 95.3618C195.535 90.375 194.005 85.6097 190.805 81.8217C183.521 73.1984 168.222 70.6267 152.493 72.4048C148.832 72.6977 145.243 73.5864 141.868 75.036C138.422 76.645 135.25 79.4429 134.668 82.1964C133.994 85.3712 136.985 87.5363 140.738 87.8257C144.491 88.115 148.807 86.9274 152.915 85.5498C175.11 78.1157 197.044 63.4982 207.267 46.2366C217.491 28.9751 213.236 9.94419 195.095 5.12606" stroke="#007A70" stroke-width="2" stroke-miterlimit="10" stroke-linecap="round" stroke-dasharray="9.74 9.74"/>
</g>
<defs>
<clipPath id="clip0_839_416">
<rect width="226.764" height="119.758" fill="white" transform="translate(0 101.549) rotate(-26.6039)"/>
</clipPath>
</defs>
</svg>
