<svg fill="none" height="512" viewBox="0 0 24 24" width="512" xmlns="http://www.w3.org/2000/svg"><path clip-rule="evenodd" d="m2.22607 6.00321c0-1.51879 1.23122-2.75001 2.75-2.75001h14.04823c1.5188 0 2.75 1.23122 2.75 2.75v10.0072c0 1.5188-1.2313 2.75-2.75 2.75h-11.80781l-3.79298 2.8196c-.22752.1691-.53097.1955-.78427.0682-.25331-.1273-.41317-.3866-.41317-.6701zm2.75-1.25001c-.69035 0-1.25.55965-1.25 1.25001v13.48279l2.79475-2.0775c.12936-.0961.28626-.1481.44744-.1481h12.05604c.6903 0 1.25-.5596 1.25-1.25v-10.0072c0-.69035-.5597-1.25-1.25-1.25z" fill="rgb(0,0,0)" fill-rule="evenodd"/></svg>