<svg enable-background="new 0 0 32 32" viewBox="0 0 32 32" xmlns="http://www.w3.org/2000/svg"><g id="Grid"/><g id="History"/><g id="Newslater"/><g id="Analytics"/><g id="Maintenance"/><g id="Copy"/><g id="Dashboard"/><g id="Schedule"/><g id="Filter"/><g id="Tasks"/><g id="Share"/><g id="Job"/><g id="Team"/><g id="Dashboard_1_"/><g id="Send"/><g id="Compose"/><g id="Chat"/><g id="Logout"/><g id="Folder"/><g id="Project"/><g id="Archive_x27_"/><g id="Setting"/><g id="Home"/><g id="Saved"/><g id="Search"/><g id="Statistics"/><g id="Profit"/><g id="Orders"/><g id="User"><path d="m30.5 16c0-8-6.5-14.5-14.5-14.5s-14.5 6.5-14.5 14.5c0 4 1.6 7.7 4.5 10.5l.4.3c2.6 2.3 6.1 3.6 9.6 3.6s6.9-1.3 9.6-3.6l.2-.2c3-2.7 4.7-6.5 4.7-10.6zm-27 0c0-6.9 5.6-12.5 12.5-12.5s12.5 5.6 12.5 12.5c0 3-1.1 5.8-3 8-1.3-4.1-5.1-7-9.5-7-4.5 0-8.3 2.9-9.5 7-1.9-2.2-3-5-3-8zm20.1 9.9c-.1.1-.3.2-.4.3-.2.1-.3.2-.5.3-.1.1-.3.2-.4.3-.2.1-.4.2-.5.3s-.3.1-.4.2c-.2.1-.4.2-.6.2-.1.1-.3.1-.4.2-.2.1-.4.1-.6.2-.1 0-.3.1-.4.1-.2.1-.4.1-.7.2-.1 0-.3.1-.4.1-.2 0-.5.1-.7.1-.1 0-.2 0-.4 0-.4 0-.7.1-1.1.1s-.7 0-1.1-.1c-.1 0-.2 0-.3 0-.3 0-.5-.1-.8-.1-.1 0-.2-.1-.4-.1-.2-.1-.5-.1-.7-.2-.1 0-.2-.1-.3-.1-.3-.1-.5-.2-.7-.2-.1 0-.2-.1-.3-.1-.3-.1-.5-.2-.8-.3-.1 0-.1-.1-.2-.1-.3-.1-.5-.3-.8-.4-.1 0-.1-.1-.2-.1-.2-.2-.5-.3-.7-.5-.2-.1-.3-.2-.3-.2-.1-.1-.2-.2-.4-.3.6-3.9 3.9-6.7 7.9-6.7s7.3 2.8 7.9 6.7c-.1.1-.2.1-.3.2z"/><g><path d="m16 15.9c-3 0-5.4-2.4-5.4-5.4s2.4-5.4 5.4-5.4 5.4 2.4 5.4 5.4-2.4 5.4-5.4 5.4zm0-8.8c-1.9 0-3.4 1.5-3.4 3.4s1.5 3.4 3.4 3.4 3.4-1.5 3.4-3.4-1.5-3.4-3.4-3.4z"/></g></g><g id="Notification"/><g id="Add"/><g id="Delete"/><g id="Workflow"/><g id="Layout"/><g id="Message"/><g id="Library"/><g id="Project_Done"/><g id="Report"/></svg>