<svg width="20" height="20" viewBox="0 0 20 20" fill="none" xmlns="http://www.w3.org/2000/svg">
<path d="M19.5866 11H0.41235C0.184269 11 0 10.7715 0 10.4886C0 10.2058 0.184269 9.97723 0.41235 9.97723H18.5906L16.0881 6.87375C15.927 6.67399 15.927 6.34958 16.0881 6.14982C16.2492 5.95006 16.5108 5.95006 16.6718 6.14982L19.8792 10.1274C19.9977 10.2745 20.0325 10.4934 19.9681 10.6852C19.9036 10.8753 19.7529 11 19.5866 11Z" fill="white"/>
<path d="M16.3435 14.4236C16.2384 14.4236 16.1333 14.3838 16.0538 14.3031C15.8935 14.1428 15.8935 13.8825 16.0538 13.7223L19.2487 10.5274C19.4089 10.3672 19.6692 10.3672 19.8294 10.5274C19.9897 10.6877 19.9897 10.9479 19.8294 11.1082L16.6346 14.3031C16.5538 14.3838 16.4487 14.4236 16.3435 14.4236Z" fill="white"/>
</svg>
