<svg width="35" height="25" viewBox="0 0 35 25" fill="none" xmlns="http://www.w3.org/2000/svg">
<path d="M31.9238 0H3.07617C1.38346 0 0 1.37737 0 3.07617V21.5332C0 23.2326 1.38435 24.6094 3.07617 24.6094H31.9238C33.6165 24.6094 35 23.232 35 21.5332V3.07617C35 1.37696 33.6159 0 31.9238 0ZM31.4515 2.05078C30.4569 3.04862 18.7746 14.769 18.2946 15.2506C17.8937 15.6527 17.1065 15.6529 16.7054 15.2506L3.54854 2.05078H31.4515ZM2.05078 21.1562V3.45317L10.8736 12.3047L2.05078 21.1562ZM3.54854 22.5586L12.3214 13.7572L15.253 16.6984C16.4543 17.9036 18.5462 17.9031 19.7471 16.6984L22.6787 13.7573L31.4515 22.5586H3.54854ZM32.9492 21.1562L24.1264 12.3047L32.9492 3.45317V21.1562Z" fill="white"/>
</svg>
