<svg width="17" height="9" viewBox="0 0 17 9" fill="none" xmlns="http://www.w3.org/2000/svg">
<path d="M15.516 5.36417L12.9473 7.85638C12.8856 7.91612 12.812 7.96354 12.7306 7.9959C12.6492 8.02826 12.5618 8.04492 12.4732 8.04492C12.3847 8.04492 12.2969 8.02826 12.2149 7.9959C12.1328 7.96354 12.0582 7.91612 11.9952 7.85638C11.8691 7.73696 11.7973 7.57541 11.7955 7.40702C11.7937 7.23863 11.8621 7.07708 11.9857 6.95766L14.3487 4.66941L0.676996 4.66941C0.499166 4.66941 0.327913 4.60226 0.200911 4.48272C0.0739084 4.36319 0.0015603 4.20106 -0.000217839 4.03202C-0.00199598 3.86297 0.0669415 3.70084 0.191429 3.58131C0.315917 3.46177 0.485757 3.39462 0.663587 3.39462L14.3755 3.39462L11.9241 1.09363C11.8606 1.03437 11.81 0.963876 11.7751 0.886204C11.7403 0.808532 11.7218 0.72522 11.721 0.641077C11.7201 0.556933 11.7367 0.473622 11.77 0.39595C11.8032 0.318277 11.8523 0.24778 11.9145 0.188526C11.9762 0.128784 12.0499 0.0813655 12.1313 0.0490058C12.2126 0.0166461 12.3001 -1.37023e-05 12.3886 -1.37023e-05C12.4771 -1.37023e-05 12.5649 0.0166461 12.647 0.0490058C12.729 0.0813655 12.8037 0.128784 12.8667 0.188526L15.4875 2.66162C15.868 3.02015 16.0847 3.50616 16.09 4.01289C16.0954 4.51962 15.8889 5.00563 15.516 5.36417Z" fill="white"/>
</svg>
