<svg width="41" height="32" viewBox="0 0 41 32" fill="none" xmlns="http://www.w3.org/2000/svg">
<path d="M37.125 2.52084C39.4167 5.04167 40.7917 7.79167 40.7917 12.375C40.7917 20.3958 35.0625 27.5 27.0417 31.1667L24.9792 28.1875C32.5417 24.0625 34.1458 18.7917 34.6042 15.3542C33.4583 16.0417 31.8542 16.2708 30.25 16.0417C26.125 15.5833 22.9167 12.375 22.9167 8.02084C22.9167 5.95834 23.8333 3.89584 25.2083 2.29167C26.8125 0.687505 28.6458 5.0086e-06 30.9375 5.40928e-06C33.4583 5.85004e-06 35.75 1.14584 37.125 2.52084ZM14.2083 2.52084C16.5 5.04167 17.875 7.79167 17.875 12.375C17.875 20.3958 12.1458 27.5 4.12499 31.1667L2.0625 28.1875C9.62499 24.0625 11.2292 18.7917 11.6875 15.3542C10.5417 16.0417 8.9375 16.2708 7.33333 16.0417C3.20833 15.5833 -2.12364e-06 12.1458 -1.40241e-06 8.02083C-1.04179e-06 5.95833 0.916666 3.89583 2.29167 2.29167C3.89583 0.687501 5.72917 1.00172e-06 8.02083 1.40241e-06C10.5417 1.84316e-06 12.8333 1.14584 14.2083 2.52084Z" fill="#007A70"/>
</svg>
