<svg width="114" height="15" viewBox="0 0 114 15" fill="none" xmlns="http://www.w3.org/2000/svg">
<path d="M113.354 7.71781C113.549 7.52255 113.549 7.20597 113.354 7.0107L110.172 3.82872C109.976 3.63346 109.66 3.63346 109.464 3.82872C109.269 4.02399 109.269 4.34057 109.464 4.53583L112.293 7.36426L109.464 10.1927C109.269 10.3879 109.269 10.7045 109.464 10.8998C109.66 11.0951 109.976 11.0951 110.172 10.8998L113.354 7.71781ZM0 7.86426H3.13889V6.86426H0V7.86426ZM9.41667 7.86426H15.6944V6.86426H9.41667V7.86426ZM21.9722 7.86426H28.25V6.86426H21.9722V7.86426ZM34.5278 7.86426H40.8056V6.86426H34.5278V7.86426ZM47.0833 7.86426H53.3611V6.86426H47.0833V7.86426ZM59.6389 7.86426H65.9167V6.86426H59.6389V7.86426ZM72.1945 7.86426H78.4722V6.86426H72.1945V7.86426ZM84.75 7.86426H91.0278V6.86426H84.75V7.86426ZM97.3056 7.86426H103.583V6.86426H97.3056V7.86426ZM109.861 7.86426H113V6.86426H109.861V7.86426ZM113.707 8.07136C114.098 7.68084 114.098 7.04768 113.707 6.65715L107.343 0.29319C106.953 -0.0973344 106.319 -0.0973344 105.929 0.29319C105.538 0.683714 105.538 1.31688 105.929 1.7074L111.586 7.36426L105.929 13.0211C105.538 13.4116 105.538 14.0448 105.929 14.4353C106.319 14.8259 106.953 14.8259 107.343 14.4353L113.707 8.07136ZM0 8.36426H3.13889V6.36426H0V8.36426ZM9.41667 8.36426H15.6944V6.36426H9.41667V8.36426ZM21.9722 8.36426H28.25V6.36426H21.9722V8.36426ZM34.5278 8.36426H40.8056V6.36426H34.5278V8.36426ZM47.0833 8.36426H53.3611V6.36426H47.0833V8.36426ZM59.6389 8.36426H65.9167V6.36426H59.6389V8.36426ZM72.1945 8.36426H78.4722V6.36426H72.1945V8.36426ZM84.75 8.36426H91.0278V6.36426H84.75V8.36426ZM97.3056 8.36426H103.583V6.36426H97.3056V8.36426ZM109.861 8.36426H113V6.36426H109.861V8.36426Z" fill="#007A70"/>
</svg>
