<svg width="114" height="106" viewBox="0 0 114 106" fill="none" xmlns="http://www.w3.org/2000/svg">
<path opacity="0.05" d="M64.7838 101.069L64.7838 82.0845C64.7838 79.5098 66.8709 77.4236 69.4456 77.4236C78.6316 77.4236 83.6285 68.0019 84.321 49.4065L69.4456 49.4065C66.8709 49.4065 64.7838 47.3184 64.7838 44.7447L64.7838 4.66052C64.7838 2.08714 66.8709 0.000667287 69.4456 0.000667512L109.107 0.000670979C111.682 0.000671204 113.768 2.08878 113.768 4.66052L113.768 44.7447C113.768 53.659 112.87 61.8393 111.101 69.0611C109.286 76.4661 106.5 82.9406 102.824 88.3054C99.0407 93.8188 94.3085 98.1453 88.7576 101.159C83.1693 104.192 76.6706 105.729 69.4439 105.729C66.8709 105.729 64.7838 103.643 64.7838 101.069ZM4.662 77.4233C2.08862 77.4233 -0.000127408 79.5114 -0.000127633 82.0841L-0.000129292 101.068C-0.000129517 103.643 2.08829 105.729 4.66199 105.729C11.8858 105.729 18.3854 104.191 23.9718 101.159C29.5237 98.1449 34.2585 93.8185 38.0423 88.3051C41.7175 82.9403 44.5031 76.4655 46.3181 69.0588C48.0865 61.8347 48.984 53.6544 48.984 44.7444L48.984 4.66019C48.984 2.08681 46.8962 0.000337477 44.3222 0.000337252L4.66233 0.000333784C2.08895 0.000333559 0.00215292 2.08843 0.0021527 4.66018L0.00214919 44.7447C0.00214897 47.3181 2.08862 49.4065 4.66233 49.4065L19.3256 49.4065C18.6435 68.0016 13.7197 77.4233 4.662 77.4233Z" fill="#0154F7"/>
</svg>
