<svg width="141" height="58" viewBox="0 0 141 58" fill="none" xmlns="http://www.w3.org/2000/svg">
<g clip-path="url(#clip0_839_403)">
<mask id="mask0_839_403" style="mask-type:luminance" maskUnits="userSpaceOnUse" x="0" y="0" width="141" height="58">
<path d="M141 0H0V58H141V0Z" fill="white"/>
</mask>
<g mask="url(#mask0_839_403)">
<g opacity="0.7">
<path d="M0.333008 8.07985C0.333008 8.07985 14.9173 0.202571 30.8271 8.07985C46.7368 15.9571 48.0643 -3.32854 61.653 2.64767C75.2416 8.62388 75.5738 14.3271 88.1702 6.4508C100.767 -1.42549 102.755 1.01857 115.019 8.08082C127.284 15.1431 140.542 2.64864 140.542 2.64864" stroke="#007A70" stroke-width="2" stroke-linecap="round"/>
<path d="M0.333008 22.971C0.333008 22.971 14.9173 15.0937 30.8271 22.971C46.7368 30.8482 48.0643 11.5626 61.653 17.5388C75.2416 23.515 75.5738 29.2182 88.1702 21.3419C100.767 13.4656 102.755 15.9097 115.019 22.9719C127.284 30.0342 140.542 17.5398 140.542 17.5398" stroke="#007A70" stroke-width="2" stroke-linecap="round"/>
<path d="M0.333008 37.8616C0.333008 37.8616 14.9173 29.9843 30.8271 37.8616C46.7368 45.7389 48.0643 26.4532 61.653 32.4294C75.2416 38.4056 75.5738 44.1088 88.1702 36.2325C100.767 28.3562 102.755 30.8003 115.019 37.8626C127.284 44.9248 140.542 32.4304 140.542 32.4304" stroke="#007A70" stroke-width="2" stroke-linecap="round"/>
<path d="M0.333008 52.7527C0.333008 52.7527 14.9173 44.8754 30.8271 52.7527C46.7368 60.63 48.0643 41.3443 61.653 47.3205C75.2416 53.2967 75.5738 58.9999 88.1702 51.1236C100.767 43.2474 102.755 45.6914 115.019 52.7537C127.284 59.8159 140.542 47.3215 140.542 47.3215" stroke="#007A70" stroke-width="2" stroke-linecap="round"/>
</g>
</g>
</g>
<defs>
<clipPath id="clip0_839_403">
<rect width="141" height="58" fill="white"/>
</clipPath>
</defs>
</svg>
