<svg width="114" height="15" viewBox="0 0 114 15" fill="none" xmlns="http://www.w3.org/2000/svg">
<path d="M113.354 7.71732C113.549 7.52206 113.549 7.20548 113.354 7.01022L110.172 3.82824C109.976 3.63297 109.66 3.63297 109.464 3.82824C109.269 4.0235 109.269 4.34008 109.464 4.53534L112.293 7.36377L109.464 10.1922C109.269 10.3875 109.269 10.704 109.464 10.8993C109.66 11.0946 109.976 11.0946 110.172 10.8993L113.354 7.71732ZM0 7.86377H3.13889V6.86377H0V7.86377ZM9.41667 7.86377H15.6944V6.86377H9.41667V7.86377ZM21.9722 7.86377H28.25V6.86377H21.9722V7.86377ZM34.5278 7.86377H40.8056V6.86377H34.5278V7.86377ZM47.0833 7.86377H53.3611V6.86377H47.0833V7.86377ZM59.6389 7.86377H65.9167V6.86377H59.6389V7.86377ZM72.1945 7.86377H78.4722V6.86377H72.1945V7.86377ZM84.75 7.86377H91.0278V6.86377H84.75V7.86377ZM97.3056 7.86377H103.583V6.86377H97.3056V7.86377ZM109.861 7.86377H113V6.86377H109.861V7.86377ZM113.707 8.07088C114.098 7.68035 114.098 7.04719 113.707 6.65666L107.343 0.292702C106.953 -0.0978227 106.319 -0.0978227 105.929 0.292702C105.538 0.683226 105.538 1.31639 105.929 1.70692L111.586 7.36377L105.929 13.0206C105.538 13.4111 105.538 14.0443 105.929 14.4348C106.319 14.8254 106.953 14.8254 107.343 14.4348L113.707 8.07088ZM0 8.36377H3.13889V6.36377H0V8.36377ZM9.41667 8.36377H15.6944V6.36377H9.41667V8.36377ZM21.9722 8.36377H28.25V6.36377H21.9722V8.36377ZM34.5278 8.36377H40.8056V6.36377H34.5278V8.36377ZM47.0833 8.36377H53.3611V6.36377H47.0833V8.36377ZM59.6389 8.36377H65.9167V6.36377H59.6389V8.36377ZM72.1945 8.36377H78.4722V6.36377H72.1945V8.36377ZM84.75 8.36377H91.0278V6.36377H84.75V8.36377ZM97.3056 8.36377H103.583V6.36377H97.3056V8.36377ZM109.861 8.36377H113V6.36377H109.861V8.36377Z" fill="#573CFF"/>
</svg>
